G04 EAGLE Gerber RS-274X export*
G75*
%MOMM*%
%FSLAX34Y34*%
%LPD*%
%INTop Copper*%
%IPPOS*%
%AMOC8*
5,1,8,0,0,1.08239X$1,22.5*%
G01*
%ADD10C,1.879600*%
%ADD11C,1.524000*%
%ADD12P,1.814519X8X112.500000*%
%ADD13P,1.814519X8X292.500000*%
%ADD14C,1.508000*%
%ADD15P,1.429621X8X292.500000*%
%ADD16P,1.429621X8X202.500000*%
%ADD17P,1.429621X8X112.500000*%
%ADD18R,5.080000X2.540000*%
%ADD19R,2.540000X5.080000*%
%ADD20R,1.270000X2.540000*%
%ADD21C,0.152400*%
%ADD22C,0.756400*%
%ADD23C,10.000000*%
%ADD24C,0.406400*%
%ADD25C,2.540000*%
%ADD26C,2.100000*%
%ADD27C,3.500000*%
%ADD28C,1.700000*%
%ADD29C,2.000000*%

G36*
X750920Y10164D02*
X750920Y10164D01*
X750939Y10162D01*
X751041Y10184D01*
X751143Y10200D01*
X751160Y10210D01*
X751180Y10214D01*
X751269Y10267D01*
X751360Y10316D01*
X751374Y10330D01*
X751391Y10340D01*
X751458Y10419D01*
X751530Y10494D01*
X751538Y10512D01*
X751551Y10527D01*
X751590Y10623D01*
X751633Y10717D01*
X751635Y10737D01*
X751643Y10755D01*
X751661Y10922D01*
X751661Y148575D01*
X751647Y148665D01*
X751639Y148756D01*
X751627Y148786D01*
X751622Y148818D01*
X751579Y148898D01*
X751543Y148982D01*
X751517Y149014D01*
X751506Y149035D01*
X751483Y149057D01*
X751438Y149113D01*
X645378Y255173D01*
X637683Y266691D01*
X632382Y279488D01*
X629679Y293074D01*
X629679Y306926D01*
X632382Y320512D01*
X637683Y333309D01*
X645378Y344827D01*
X655173Y354622D01*
X666691Y362317D01*
X679488Y367618D01*
X693074Y370321D01*
X706926Y370321D01*
X720512Y367618D01*
X733309Y362317D01*
X744827Y354622D01*
X750362Y349087D01*
X750420Y349045D01*
X750472Y348996D01*
X750519Y348974D01*
X750561Y348943D01*
X750630Y348922D01*
X750695Y348892D01*
X750747Y348886D01*
X750797Y348871D01*
X750868Y348873D01*
X750939Y348865D01*
X750990Y348876D01*
X751042Y348877D01*
X751110Y348902D01*
X751180Y348917D01*
X751224Y348944D01*
X751273Y348962D01*
X751329Y349007D01*
X751391Y349043D01*
X751425Y349083D01*
X751465Y349115D01*
X751504Y349176D01*
X751551Y349230D01*
X751570Y349279D01*
X751598Y349322D01*
X751616Y349392D01*
X751643Y349458D01*
X751651Y349530D01*
X751659Y349561D01*
X751657Y349584D01*
X751661Y349625D01*
X751661Y451092D01*
X751658Y451115D01*
X751660Y451138D01*
X751638Y451236D01*
X751622Y451335D01*
X751611Y451356D01*
X751606Y451378D01*
X751553Y451464D01*
X751506Y451553D01*
X751490Y451568D01*
X751478Y451588D01*
X751401Y451653D01*
X751328Y451722D01*
X751307Y451732D01*
X751290Y451746D01*
X751196Y451783D01*
X751105Y451826D01*
X751082Y451828D01*
X751061Y451837D01*
X750960Y451842D01*
X750861Y451853D01*
X750838Y451848D01*
X750815Y451849D01*
X750718Y451822D01*
X750620Y451800D01*
X750600Y451789D01*
X750578Y451782D01*
X750495Y451726D01*
X750409Y451674D01*
X750394Y451657D01*
X750375Y451644D01*
X750267Y451515D01*
X744757Y443269D01*
X736731Y435243D01*
X727294Y428937D01*
X716807Y424594D01*
X705675Y422379D01*
X694325Y422379D01*
X683193Y424594D01*
X672706Y428937D01*
X663269Y435243D01*
X655243Y443269D01*
X648937Y452706D01*
X644594Y463193D01*
X642379Y474325D01*
X642379Y517575D01*
X644594Y528707D01*
X648937Y539194D01*
X655243Y548631D01*
X663322Y556710D01*
X751438Y644826D01*
X751491Y644900D01*
X751551Y644970D01*
X751563Y645000D01*
X751582Y645026D01*
X751609Y645113D01*
X751643Y645198D01*
X751647Y645239D01*
X751654Y645261D01*
X751653Y645293D01*
X751661Y645365D01*
X751661Y732582D01*
X751658Y732602D01*
X751660Y732621D01*
X751638Y732723D01*
X751622Y732825D01*
X751612Y732842D01*
X751608Y732862D01*
X751555Y732951D01*
X751506Y733042D01*
X751492Y733056D01*
X751482Y733073D01*
X751403Y733140D01*
X751328Y733212D01*
X751310Y733220D01*
X751295Y733233D01*
X751199Y733272D01*
X751105Y733315D01*
X751085Y733317D01*
X751067Y733325D01*
X750900Y733343D01*
X696140Y733343D01*
X696070Y733332D01*
X695998Y733330D01*
X695949Y733312D01*
X695898Y733304D01*
X695834Y733270D01*
X695767Y733245D01*
X695726Y733213D01*
X695680Y733188D01*
X695631Y733136D01*
X695575Y733092D01*
X695547Y733048D01*
X695511Y733010D01*
X695481Y732945D01*
X695442Y732885D01*
X695429Y732834D01*
X695407Y732787D01*
X695399Y732716D01*
X695382Y732646D01*
X695386Y732594D01*
X695380Y732543D01*
X695395Y732472D01*
X695401Y732401D01*
X695421Y732353D01*
X695432Y732302D01*
X695469Y732241D01*
X695497Y732175D01*
X695542Y732119D01*
X695559Y732091D01*
X695576Y732076D01*
X695602Y732044D01*
X700079Y727567D01*
X700079Y720833D01*
X695317Y716071D01*
X688583Y716071D01*
X683821Y720833D01*
X683821Y727567D01*
X688298Y732044D01*
X688340Y732102D01*
X688389Y732154D01*
X688411Y732201D01*
X688442Y732243D01*
X688463Y732312D01*
X688493Y732377D01*
X688499Y732429D01*
X688514Y732479D01*
X688512Y732550D01*
X688520Y732621D01*
X688509Y732672D01*
X688508Y732724D01*
X688483Y732792D01*
X688468Y732862D01*
X688441Y732907D01*
X688423Y732955D01*
X688378Y733011D01*
X688341Y733073D01*
X688302Y733107D01*
X688269Y733147D01*
X688209Y733186D01*
X688155Y733233D01*
X688106Y733252D01*
X688062Y733280D01*
X687993Y733298D01*
X687926Y733325D01*
X687855Y733333D01*
X687824Y733341D01*
X687801Y733339D01*
X687760Y733343D01*
X681154Y733343D01*
X681064Y733329D01*
X680973Y733321D01*
X680944Y733309D01*
X680912Y733304D01*
X680831Y733261D01*
X680747Y733225D01*
X680715Y733199D01*
X680694Y733188D01*
X680672Y733165D01*
X680616Y733120D01*
X676267Y728771D01*
X669533Y728771D01*
X664771Y733533D01*
X664771Y740267D01*
X669120Y744616D01*
X669173Y744690D01*
X669233Y744759D01*
X669245Y744790D01*
X669264Y744816D01*
X669291Y744903D01*
X669325Y744988D01*
X669329Y745029D01*
X669336Y745051D01*
X669335Y745083D01*
X669343Y745154D01*
X669343Y825011D01*
X669329Y825102D01*
X669321Y825192D01*
X669309Y825222D01*
X669304Y825254D01*
X669261Y825335D01*
X669225Y825419D01*
X669199Y825451D01*
X669188Y825472D01*
X669165Y825494D01*
X669120Y825550D01*
X609450Y885220D01*
X609376Y885273D01*
X609306Y885333D01*
X609276Y885345D01*
X609250Y885364D01*
X609163Y885391D01*
X609078Y885425D01*
X609037Y885429D01*
X609015Y885436D01*
X608983Y885435D01*
X608911Y885443D01*
X592454Y885443D01*
X592364Y885429D01*
X592273Y885421D01*
X592244Y885409D01*
X592212Y885404D01*
X592131Y885361D01*
X592047Y885325D01*
X592015Y885299D01*
X591994Y885288D01*
X591972Y885265D01*
X591916Y885220D01*
X587567Y880871D01*
X580833Y880871D01*
X576071Y885633D01*
X576071Y892367D01*
X580833Y897129D01*
X587567Y897129D01*
X591916Y892780D01*
X591990Y892727D01*
X592059Y892667D01*
X592090Y892655D01*
X592116Y892636D01*
X592203Y892609D01*
X592288Y892575D01*
X592329Y892571D01*
X592351Y892564D01*
X592383Y892565D01*
X592454Y892557D01*
X612173Y892557D01*
X676457Y828273D01*
X676457Y745154D01*
X676471Y745064D01*
X676479Y744973D01*
X676491Y744944D01*
X676496Y744912D01*
X676539Y744831D01*
X676575Y744747D01*
X676601Y744715D01*
X676612Y744694D01*
X676635Y744672D01*
X676680Y744616D01*
X680616Y740680D01*
X680690Y740627D01*
X680759Y740567D01*
X680790Y740555D01*
X680816Y740536D01*
X680903Y740509D01*
X680988Y740475D01*
X681029Y740471D01*
X681051Y740464D01*
X681083Y740465D01*
X681154Y740457D01*
X750900Y740457D01*
X750920Y740460D01*
X750939Y740458D01*
X751041Y740480D01*
X751143Y740496D01*
X751160Y740506D01*
X751180Y740510D01*
X751269Y740563D01*
X751360Y740612D01*
X751374Y740626D01*
X751391Y740636D01*
X751458Y740715D01*
X751530Y740790D01*
X751538Y740808D01*
X751551Y740823D01*
X751590Y740919D01*
X751633Y741013D01*
X751635Y741033D01*
X751643Y741051D01*
X751661Y741218D01*
X751661Y989078D01*
X751658Y989098D01*
X751660Y989117D01*
X751638Y989219D01*
X751622Y989321D01*
X751612Y989338D01*
X751608Y989358D01*
X751555Y989447D01*
X751506Y989538D01*
X751492Y989552D01*
X751482Y989569D01*
X751403Y989636D01*
X751328Y989708D01*
X751310Y989716D01*
X751295Y989729D01*
X751199Y989768D01*
X751105Y989811D01*
X751085Y989813D01*
X751067Y989821D01*
X750900Y989839D01*
X10922Y989839D01*
X10902Y989836D01*
X10883Y989838D01*
X10781Y989816D01*
X10679Y989800D01*
X10662Y989790D01*
X10642Y989786D01*
X10553Y989733D01*
X10462Y989684D01*
X10448Y989670D01*
X10431Y989660D01*
X10364Y989581D01*
X10292Y989506D01*
X10284Y989488D01*
X10271Y989473D01*
X10232Y989377D01*
X10189Y989283D01*
X10187Y989263D01*
X10179Y989245D01*
X10161Y989078D01*
X10161Y10922D01*
X10164Y10902D01*
X10162Y10883D01*
X10184Y10781D01*
X10200Y10679D01*
X10210Y10662D01*
X10214Y10642D01*
X10267Y10553D01*
X10316Y10462D01*
X10330Y10448D01*
X10340Y10431D01*
X10419Y10364D01*
X10494Y10292D01*
X10512Y10284D01*
X10527Y10271D01*
X10623Y10232D01*
X10717Y10189D01*
X10737Y10187D01*
X10755Y10179D01*
X10922Y10161D01*
X750900Y10161D01*
X750920Y10164D01*
G37*
%LPC*%
G36*
X507827Y63077D02*
X507827Y63077D01*
X503813Y64740D01*
X500740Y67813D01*
X499845Y69973D01*
X499784Y70073D01*
X499724Y70173D01*
X499719Y70177D01*
X499716Y70182D01*
X499626Y70257D01*
X499537Y70333D01*
X499531Y70335D01*
X499526Y70339D01*
X499418Y70381D01*
X499309Y70425D01*
X499301Y70426D01*
X499297Y70427D01*
X499278Y70428D01*
X499142Y70443D01*
X373627Y70443D01*
X326443Y117627D01*
X326443Y435682D01*
X326440Y435702D01*
X326442Y435721D01*
X326420Y435823D01*
X326404Y435925D01*
X326394Y435942D01*
X326390Y435962D01*
X326337Y436051D01*
X326288Y436142D01*
X326274Y436156D01*
X326264Y436173D01*
X326185Y436240D01*
X326110Y436312D01*
X326092Y436320D01*
X326077Y436333D01*
X325981Y436372D01*
X325887Y436415D01*
X325867Y436417D01*
X325849Y436425D01*
X325682Y436443D01*
X313763Y436443D01*
X313673Y436429D01*
X313582Y436421D01*
X313553Y436409D01*
X313521Y436404D01*
X313440Y436361D01*
X313356Y436325D01*
X313324Y436299D01*
X313303Y436288D01*
X313281Y436265D01*
X313225Y436220D01*
X311698Y434693D01*
X307302Y434693D01*
X304193Y437802D01*
X304193Y442198D01*
X307302Y445307D01*
X311698Y445307D01*
X313225Y443780D01*
X313299Y443727D01*
X313369Y443667D01*
X313399Y443655D01*
X313425Y443636D01*
X313512Y443609D01*
X313597Y443575D01*
X313638Y443571D01*
X313660Y443564D01*
X313692Y443565D01*
X313763Y443557D01*
X325682Y443557D01*
X325702Y443560D01*
X325721Y443558D01*
X325823Y443580D01*
X325925Y443596D01*
X325942Y443606D01*
X325962Y443610D01*
X326051Y443663D01*
X326142Y443712D01*
X326156Y443726D01*
X326173Y443736D01*
X326240Y443815D01*
X326312Y443890D01*
X326320Y443908D01*
X326333Y443923D01*
X326372Y444019D01*
X326415Y444113D01*
X326417Y444133D01*
X326425Y444151D01*
X326443Y444318D01*
X326443Y572294D01*
X326440Y572314D01*
X326442Y572333D01*
X326420Y572435D01*
X326404Y572537D01*
X326394Y572554D01*
X326390Y572574D01*
X326337Y572663D01*
X326288Y572754D01*
X326274Y572768D01*
X326264Y572785D01*
X326185Y572852D01*
X326110Y572924D01*
X326092Y572932D01*
X326077Y572945D01*
X325981Y572984D01*
X325887Y573027D01*
X325867Y573029D01*
X325849Y573037D01*
X325682Y573055D01*
X320561Y573055D01*
X317200Y574447D01*
X314627Y577020D01*
X313235Y580381D01*
X313235Y584019D01*
X314627Y587380D01*
X317200Y589953D01*
X320561Y591345D01*
X339439Y591345D01*
X342800Y589953D01*
X345373Y587380D01*
X346765Y584019D01*
X346765Y580381D01*
X345373Y577020D01*
X342800Y574447D01*
X339439Y573055D01*
X334318Y573055D01*
X334298Y573052D01*
X334279Y573054D01*
X334177Y573032D01*
X334075Y573016D01*
X334058Y573006D01*
X334038Y573002D01*
X333949Y572949D01*
X333858Y572900D01*
X333844Y572886D01*
X333827Y572876D01*
X333760Y572797D01*
X333688Y572722D01*
X333680Y572704D01*
X333667Y572689D01*
X333628Y572593D01*
X333585Y572499D01*
X333583Y572479D01*
X333575Y572461D01*
X333557Y572294D01*
X333557Y550418D01*
X333560Y550398D01*
X333558Y550379D01*
X333580Y550277D01*
X333596Y550175D01*
X333606Y550158D01*
X333610Y550138D01*
X333663Y550049D01*
X333712Y549958D01*
X333726Y549944D01*
X333736Y549927D01*
X333815Y549860D01*
X333890Y549788D01*
X333908Y549780D01*
X333923Y549767D01*
X334019Y549728D01*
X334113Y549685D01*
X334133Y549683D01*
X334151Y549675D01*
X334318Y549657D01*
X515111Y549657D01*
X515202Y549671D01*
X515292Y549679D01*
X515322Y549691D01*
X515354Y549696D01*
X515435Y549739D01*
X515519Y549775D01*
X515551Y549801D01*
X515572Y549812D01*
X515594Y549835D01*
X515650Y549880D01*
X580620Y614850D01*
X580667Y614916D01*
X580677Y614926D01*
X580680Y614932D01*
X580733Y614994D01*
X580745Y615024D01*
X580764Y615050D01*
X580791Y615137D01*
X580825Y615222D01*
X580829Y615263D01*
X580836Y615285D01*
X580835Y615317D01*
X580843Y615389D01*
X580843Y804346D01*
X580829Y804436D01*
X580821Y804527D01*
X580809Y804556D01*
X580804Y804588D01*
X580761Y804669D01*
X580725Y804753D01*
X580699Y804785D01*
X580688Y804806D01*
X580665Y804828D01*
X580620Y804884D01*
X576071Y809433D01*
X576071Y816167D01*
X580833Y820929D01*
X587567Y820929D01*
X592329Y816167D01*
X592329Y809433D01*
X588180Y805284D01*
X588127Y805210D01*
X588067Y805141D01*
X588055Y805110D01*
X588036Y805084D01*
X588009Y804997D01*
X587975Y804912D01*
X587971Y804871D01*
X587964Y804849D01*
X587965Y804817D01*
X587957Y804746D01*
X587957Y612127D01*
X585650Y609820D01*
X520680Y544850D01*
X518373Y542543D01*
X334318Y542543D01*
X334298Y542540D01*
X334279Y542542D01*
X334177Y542520D01*
X334075Y542504D01*
X334058Y542494D01*
X334038Y542490D01*
X333949Y542437D01*
X333858Y542388D01*
X333844Y542374D01*
X333827Y542364D01*
X333760Y542285D01*
X333688Y542210D01*
X333680Y542192D01*
X333667Y542177D01*
X333628Y542081D01*
X333585Y541987D01*
X333583Y541967D01*
X333575Y541949D01*
X333557Y541782D01*
X333557Y141618D01*
X333560Y141598D01*
X333558Y141579D01*
X333580Y141477D01*
X333596Y141375D01*
X333606Y141358D01*
X333610Y141338D01*
X333663Y141249D01*
X333712Y141158D01*
X333726Y141144D01*
X333736Y141127D01*
X333815Y141060D01*
X333890Y140988D01*
X333908Y140980D01*
X333923Y140967D01*
X334019Y140928D01*
X334113Y140885D01*
X334133Y140883D01*
X334151Y140875D01*
X334318Y140857D01*
X371946Y140857D01*
X372036Y140871D01*
X372127Y140879D01*
X372156Y140891D01*
X372188Y140896D01*
X372269Y140939D01*
X372353Y140975D01*
X372385Y141001D01*
X372406Y141012D01*
X372428Y141035D01*
X372484Y141080D01*
X376833Y145429D01*
X383567Y145429D01*
X388329Y140667D01*
X388329Y133933D01*
X383567Y129171D01*
X376833Y129171D01*
X372484Y133520D01*
X372410Y133573D01*
X372341Y133633D01*
X372310Y133645D01*
X372284Y133664D01*
X372197Y133691D01*
X372112Y133725D01*
X372071Y133729D01*
X372049Y133736D01*
X372017Y133735D01*
X371946Y133743D01*
X334318Y133743D01*
X334298Y133740D01*
X334279Y133742D01*
X334177Y133720D01*
X334075Y133704D01*
X334058Y133694D01*
X334038Y133690D01*
X333949Y133637D01*
X333858Y133588D01*
X333844Y133574D01*
X333827Y133564D01*
X333760Y133485D01*
X333688Y133410D01*
X333680Y133392D01*
X333667Y133377D01*
X333628Y133281D01*
X333585Y133187D01*
X333583Y133167D01*
X333575Y133149D01*
X333557Y132982D01*
X333557Y120889D01*
X333571Y120798D01*
X333579Y120708D01*
X333591Y120678D01*
X333596Y120646D01*
X333639Y120565D01*
X333675Y120481D01*
X333701Y120449D01*
X333712Y120428D01*
X333735Y120406D01*
X333780Y120350D01*
X376350Y77780D01*
X376424Y77727D01*
X376494Y77667D01*
X376524Y77655D01*
X376550Y77636D01*
X376637Y77609D01*
X376722Y77575D01*
X376763Y77571D01*
X376785Y77564D01*
X376817Y77565D01*
X376889Y77557D01*
X499142Y77557D01*
X499257Y77576D01*
X499373Y77593D01*
X499378Y77595D01*
X499385Y77596D01*
X499487Y77651D01*
X499592Y77704D01*
X499597Y77709D01*
X499602Y77712D01*
X499682Y77796D01*
X499764Y77880D01*
X499768Y77886D01*
X499771Y77890D01*
X499779Y77907D01*
X499845Y78027D01*
X500740Y80187D01*
X503813Y83260D01*
X507827Y84923D01*
X512173Y84923D01*
X516187Y83260D01*
X519260Y80187D01*
X520923Y76173D01*
X520923Y71827D01*
X519260Y67813D01*
X516187Y64740D01*
X512173Y63077D01*
X507827Y63077D01*
G37*
%LPD*%
%LPC*%
G36*
X107297Y414535D02*
X107297Y414535D01*
X103965Y415915D01*
X101415Y418465D01*
X100035Y421797D01*
X100035Y425403D01*
X101415Y428735D01*
X103965Y431285D01*
X107297Y432665D01*
X110903Y432665D01*
X114235Y431285D01*
X116785Y428735D01*
X117770Y426357D01*
X117832Y426257D01*
X117891Y426157D01*
X117896Y426153D01*
X117899Y426148D01*
X117990Y426073D01*
X118078Y425997D01*
X118084Y425995D01*
X118089Y425991D01*
X118197Y425949D01*
X118306Y425905D01*
X118314Y425904D01*
X118318Y425903D01*
X118337Y425902D01*
X118473Y425887D01*
X289052Y425887D01*
X289072Y425890D01*
X289091Y425888D01*
X289193Y425910D01*
X289295Y425926D01*
X289312Y425936D01*
X289332Y425940D01*
X289421Y425993D01*
X289512Y426042D01*
X289526Y426056D01*
X289543Y426066D01*
X289610Y426145D01*
X289682Y426220D01*
X289690Y426238D01*
X289703Y426253D01*
X289742Y426349D01*
X289785Y426443D01*
X289787Y426463D01*
X289795Y426481D01*
X289813Y426648D01*
X289813Y851847D01*
X301853Y863887D01*
X312920Y863887D01*
X313035Y863906D01*
X313151Y863923D01*
X313157Y863925D01*
X313163Y863926D01*
X313266Y863981D01*
X313371Y864034D01*
X313375Y864039D01*
X313380Y864042D01*
X313460Y864126D01*
X313543Y864210D01*
X313546Y864216D01*
X313550Y864220D01*
X313558Y864237D01*
X313624Y864357D01*
X314627Y866780D01*
X317200Y869353D01*
X320561Y870745D01*
X339439Y870745D01*
X342800Y869353D01*
X345373Y866780D01*
X346765Y863419D01*
X346765Y859781D01*
X345373Y856420D01*
X342800Y853847D01*
X339439Y852455D01*
X320561Y852455D01*
X317200Y853847D01*
X314627Y856420D01*
X313624Y858843D01*
X313562Y858943D01*
X313502Y859043D01*
X313497Y859047D01*
X313494Y859052D01*
X313404Y859127D01*
X313315Y859203D01*
X313309Y859205D01*
X313305Y859209D01*
X313196Y859251D01*
X313087Y859295D01*
X313080Y859296D01*
X313075Y859297D01*
X313057Y859298D01*
X312920Y859313D01*
X304063Y859313D01*
X303972Y859299D01*
X303882Y859291D01*
X303852Y859279D01*
X303820Y859274D01*
X303739Y859231D01*
X303655Y859195D01*
X303623Y859169D01*
X303602Y859158D01*
X303580Y859135D01*
X303524Y859090D01*
X294610Y850176D01*
X294557Y850102D01*
X294497Y850032D01*
X294485Y850002D01*
X294466Y849976D01*
X294439Y849889D01*
X294405Y849804D01*
X294401Y849763D01*
X294394Y849741D01*
X294395Y849709D01*
X294387Y849637D01*
X294387Y422653D01*
X293047Y421313D01*
X118473Y421313D01*
X118358Y421294D01*
X118242Y421277D01*
X118236Y421275D01*
X118230Y421274D01*
X118128Y421219D01*
X118023Y421166D01*
X118018Y421161D01*
X118013Y421158D01*
X117933Y421074D01*
X117851Y420990D01*
X117847Y420984D01*
X117844Y420980D01*
X117836Y420963D01*
X117770Y420843D01*
X116785Y418465D01*
X114235Y415915D01*
X110903Y414535D01*
X107297Y414535D01*
G37*
%LPD*%
%LPC*%
G36*
X472961Y750855D02*
X472961Y750855D01*
X469600Y752247D01*
X467027Y754820D01*
X465635Y758181D01*
X465635Y761819D01*
X467027Y765180D01*
X469600Y767753D01*
X470251Y768022D01*
X470281Y768041D01*
X470314Y768052D01*
X470385Y768105D01*
X470460Y768152D01*
X470482Y768179D01*
X470510Y768200D01*
X470560Y768273D01*
X470617Y768341D01*
X470629Y768374D01*
X470649Y768403D01*
X470673Y768488D01*
X470705Y768571D01*
X470706Y768606D01*
X470716Y768640D01*
X470711Y768728D01*
X470715Y768817D01*
X470705Y768850D01*
X470704Y768885D01*
X470671Y768968D01*
X470647Y769053D01*
X470627Y769082D01*
X470614Y769114D01*
X470513Y769248D01*
X443740Y797575D01*
X443659Y797637D01*
X443582Y797703D01*
X443562Y797711D01*
X443544Y797724D01*
X443448Y797757D01*
X443354Y797795D01*
X443327Y797798D01*
X443312Y797803D01*
X443279Y797803D01*
X443187Y797813D01*
X411933Y797813D01*
X411843Y797799D01*
X411752Y797791D01*
X411723Y797779D01*
X411691Y797774D01*
X411610Y797731D01*
X411526Y797695D01*
X411494Y797669D01*
X411473Y797658D01*
X411451Y797635D01*
X411395Y797590D01*
X408598Y794793D01*
X404202Y794793D01*
X401093Y797902D01*
X401093Y802298D01*
X404202Y805407D01*
X408598Y805407D01*
X411395Y802610D01*
X411469Y802557D01*
X411539Y802497D01*
X411569Y802485D01*
X411595Y802466D01*
X411682Y802439D01*
X411767Y802405D01*
X411808Y802401D01*
X411830Y802394D01*
X411862Y802395D01*
X411933Y802387D01*
X443288Y802387D01*
X443367Y802400D01*
X443448Y802404D01*
X443480Y802416D01*
X444521Y802387D01*
X444530Y802388D01*
X444543Y802387D01*
X445485Y802387D01*
X446132Y801702D01*
X446139Y801697D01*
X446147Y801687D01*
X446883Y800951D01*
X446894Y800923D01*
X446928Y800878D01*
X446942Y800852D01*
X446962Y800833D01*
X446995Y800790D01*
X464652Y782107D01*
X464738Y782042D01*
X464821Y781973D01*
X464835Y781968D01*
X464847Y781958D01*
X464949Y781924D01*
X465051Y781885D01*
X465066Y781884D01*
X465080Y781879D01*
X465188Y781879D01*
X465296Y781875D01*
X465311Y781879D01*
X465326Y781879D01*
X465429Y781913D01*
X465532Y781943D01*
X465545Y781952D01*
X465560Y781957D01*
X465646Y782022D01*
X465735Y782083D01*
X465744Y782096D01*
X465756Y782105D01*
X465817Y782194D01*
X465881Y782281D01*
X465886Y782295D01*
X465895Y782308D01*
X465924Y782412D01*
X465957Y782515D01*
X465957Y782530D01*
X465962Y782545D01*
X465956Y782653D01*
X465955Y782761D01*
X465950Y782779D01*
X465949Y782790D01*
X465938Y782818D01*
X465908Y782922D01*
X465635Y783581D01*
X465635Y787219D01*
X467027Y790580D01*
X469600Y793153D01*
X470251Y793422D01*
X470281Y793441D01*
X470314Y793452D01*
X470385Y793505D01*
X470460Y793552D01*
X470482Y793579D01*
X470510Y793600D01*
X470560Y793673D01*
X470617Y793741D01*
X470629Y793774D01*
X470649Y793803D01*
X470673Y793888D01*
X470705Y793971D01*
X470706Y794006D01*
X470716Y794040D01*
X470711Y794128D01*
X470715Y794217D01*
X470705Y794250D01*
X470704Y794285D01*
X470671Y794368D01*
X470647Y794453D01*
X470627Y794482D01*
X470614Y794514D01*
X470513Y794648D01*
X443740Y822975D01*
X443659Y823037D01*
X443582Y823103D01*
X443562Y823111D01*
X443544Y823124D01*
X443448Y823157D01*
X443354Y823195D01*
X443327Y823198D01*
X443312Y823203D01*
X443279Y823203D01*
X443187Y823213D01*
X386533Y823213D01*
X386443Y823199D01*
X386352Y823191D01*
X386323Y823179D01*
X386291Y823174D01*
X386210Y823131D01*
X386126Y823095D01*
X386094Y823069D01*
X386073Y823058D01*
X386051Y823035D01*
X385995Y822990D01*
X383198Y820193D01*
X378802Y820193D01*
X375693Y823302D01*
X375693Y827698D01*
X378802Y830807D01*
X383198Y830807D01*
X385995Y828010D01*
X386069Y827957D01*
X386139Y827897D01*
X386169Y827885D01*
X386195Y827866D01*
X386282Y827839D01*
X386367Y827805D01*
X386408Y827801D01*
X386430Y827794D01*
X386462Y827795D01*
X386533Y827787D01*
X443288Y827787D01*
X443367Y827800D01*
X443448Y827804D01*
X443480Y827816D01*
X444521Y827787D01*
X444530Y827788D01*
X444543Y827787D01*
X445485Y827787D01*
X446132Y827102D01*
X446139Y827097D01*
X446147Y827087D01*
X446883Y826351D01*
X446894Y826323D01*
X446928Y826278D01*
X446942Y826252D01*
X446962Y826233D01*
X446995Y826190D01*
X464652Y807507D01*
X464738Y807442D01*
X464821Y807373D01*
X464835Y807368D01*
X464847Y807358D01*
X464950Y807324D01*
X465050Y807285D01*
X465066Y807284D01*
X465080Y807279D01*
X465188Y807279D01*
X465296Y807275D01*
X465311Y807279D01*
X465326Y807279D01*
X465429Y807313D01*
X465532Y807343D01*
X465545Y807352D01*
X465560Y807357D01*
X465646Y807422D01*
X465734Y807483D01*
X465744Y807496D01*
X465756Y807505D01*
X465817Y807594D01*
X465881Y807681D01*
X465886Y807695D01*
X465895Y807708D01*
X465924Y807812D01*
X465957Y807915D01*
X465957Y807930D01*
X465961Y807945D01*
X465956Y808053D01*
X465955Y808161D01*
X465950Y808179D01*
X465949Y808190D01*
X465938Y808218D01*
X465908Y808322D01*
X465635Y808981D01*
X465635Y812619D01*
X467027Y815980D01*
X469600Y818553D01*
X472961Y819945D01*
X491839Y819945D01*
X495200Y818553D01*
X497773Y815980D01*
X499165Y812619D01*
X499165Y808981D01*
X497773Y805620D01*
X495200Y803047D01*
X491839Y801655D01*
X472961Y801655D01*
X471688Y802183D01*
X471604Y802202D01*
X471522Y802230D01*
X471485Y802230D01*
X471449Y802239D01*
X471362Y802231D01*
X471276Y802231D01*
X471241Y802219D01*
X471204Y802216D01*
X471125Y802180D01*
X471042Y802153D01*
X471013Y802131D01*
X470979Y802116D01*
X470915Y802057D01*
X470846Y802005D01*
X470825Y801974D01*
X470798Y801949D01*
X470756Y801873D01*
X470707Y801802D01*
X470697Y801766D01*
X470679Y801734D01*
X470664Y801648D01*
X470640Y801565D01*
X470642Y801528D01*
X470636Y801492D01*
X470648Y801406D01*
X470653Y801319D01*
X470666Y801285D01*
X470671Y801248D01*
X470711Y801171D01*
X470742Y801090D01*
X470771Y801052D01*
X470783Y801029D01*
X470805Y801007D01*
X470844Y800956D01*
X476678Y794783D01*
X476759Y794721D01*
X476837Y794655D01*
X476857Y794647D01*
X476874Y794634D01*
X476970Y794601D01*
X477065Y794563D01*
X477091Y794560D01*
X477107Y794555D01*
X477139Y794555D01*
X477231Y794545D01*
X491839Y794545D01*
X495200Y793153D01*
X497773Y790580D01*
X499165Y787219D01*
X499165Y783581D01*
X497773Y780220D01*
X495200Y777647D01*
X491839Y776255D01*
X472961Y776255D01*
X471688Y776783D01*
X471604Y776802D01*
X471522Y776830D01*
X471485Y776830D01*
X471449Y776839D01*
X471362Y776831D01*
X471276Y776831D01*
X471241Y776819D01*
X471204Y776816D01*
X471125Y776780D01*
X471042Y776753D01*
X471013Y776731D01*
X470979Y776716D01*
X470915Y776657D01*
X470846Y776605D01*
X470825Y776574D01*
X470798Y776549D01*
X470756Y776473D01*
X470707Y776402D01*
X470697Y776366D01*
X470679Y776334D01*
X470664Y776248D01*
X470640Y776165D01*
X470642Y776128D01*
X470636Y776092D01*
X470648Y776006D01*
X470653Y775919D01*
X470666Y775885D01*
X470671Y775848D01*
X470711Y775771D01*
X470742Y775690D01*
X470771Y775652D01*
X470783Y775629D01*
X470805Y775607D01*
X470844Y775556D01*
X476678Y769383D01*
X476759Y769321D01*
X476837Y769255D01*
X476857Y769247D01*
X476874Y769234D01*
X476970Y769201D01*
X477065Y769163D01*
X477091Y769160D01*
X477107Y769155D01*
X477139Y769155D01*
X477231Y769145D01*
X491839Y769145D01*
X495200Y767753D01*
X497773Y765180D01*
X499165Y761819D01*
X499165Y758181D01*
X497773Y754820D01*
X495200Y752247D01*
X491839Y750855D01*
X472961Y750855D01*
G37*
%LPD*%
%LPC*%
G36*
X276802Y434693D02*
X276802Y434693D01*
X273693Y437802D01*
X273693Y439961D01*
X273679Y440052D01*
X273671Y440142D01*
X273659Y440172D01*
X273654Y440204D01*
X273611Y440285D01*
X273575Y440369D01*
X273549Y440401D01*
X273538Y440422D01*
X273515Y440444D01*
X273470Y440500D01*
X212343Y501627D01*
X212343Y631393D01*
X214650Y633700D01*
X229392Y648442D01*
X229445Y648516D01*
X229505Y648586D01*
X229517Y648616D01*
X229536Y648642D01*
X229563Y648729D01*
X229597Y648814D01*
X229601Y648855D01*
X229608Y648877D01*
X229607Y648909D01*
X229615Y648981D01*
X229615Y664842D01*
X230508Y665735D01*
X244472Y665735D01*
X245365Y664842D01*
X245365Y638178D01*
X244472Y637285D01*
X230508Y637285D01*
X229940Y637854D01*
X229924Y637865D01*
X229911Y637881D01*
X229824Y637937D01*
X229740Y637997D01*
X229721Y638003D01*
X229705Y638014D01*
X229604Y638039D01*
X229505Y638069D01*
X229485Y638069D01*
X229466Y638074D01*
X229363Y638066D01*
X229259Y638063D01*
X229241Y638056D01*
X229221Y638055D01*
X229126Y638014D01*
X229028Y637979D01*
X229013Y637966D01*
X228995Y637958D01*
X228864Y637854D01*
X219680Y628670D01*
X219627Y628596D01*
X219567Y628526D01*
X219555Y628496D01*
X219536Y628470D01*
X219509Y628383D01*
X219475Y628298D01*
X219471Y628257D01*
X219464Y628235D01*
X219465Y628203D01*
X219457Y628131D01*
X219457Y504889D01*
X219471Y504798D01*
X219479Y504708D01*
X219491Y504678D01*
X219496Y504646D01*
X219539Y504565D01*
X219575Y504481D01*
X219601Y504449D01*
X219612Y504428D01*
X219635Y504406D01*
X219680Y504350D01*
X278500Y445530D01*
X278574Y445477D01*
X278644Y445417D01*
X278674Y445405D01*
X278700Y445386D01*
X278787Y445359D01*
X278872Y445325D01*
X278913Y445321D01*
X278935Y445314D01*
X278967Y445315D01*
X279039Y445307D01*
X281198Y445307D01*
X284307Y442198D01*
X284307Y437802D01*
X281198Y434693D01*
X276802Y434693D01*
G37*
%LPD*%
%LPC*%
G36*
X556688Y454839D02*
X556688Y454839D01*
X550288Y456554D01*
X544551Y459866D01*
X539866Y464551D01*
X536554Y470288D01*
X534839Y476688D01*
X534839Y483312D01*
X536554Y489712D01*
X539866Y495449D01*
X544551Y500134D01*
X550288Y503446D01*
X556688Y505161D01*
X563312Y505161D01*
X569712Y503446D01*
X575449Y500134D01*
X580134Y495449D01*
X583446Y489712D01*
X585161Y483312D01*
X585161Y476688D01*
X583446Y470288D01*
X580134Y464551D01*
X575449Y459866D01*
X569712Y456554D01*
X563312Y454839D01*
X556688Y454839D01*
G37*
%LPD*%
%LPC*%
G36*
X56688Y154839D02*
X56688Y154839D01*
X50288Y156554D01*
X44551Y159866D01*
X39866Y164551D01*
X36554Y170288D01*
X34839Y176688D01*
X34839Y183312D01*
X36554Y189712D01*
X39866Y195449D01*
X44551Y200134D01*
X50288Y203446D01*
X56688Y205161D01*
X63312Y205161D01*
X69712Y203446D01*
X75449Y200134D01*
X80134Y195449D01*
X83446Y189712D01*
X85161Y183312D01*
X85161Y176688D01*
X83446Y170288D01*
X80134Y164551D01*
X75449Y159866D01*
X69712Y156554D01*
X63312Y154839D01*
X56688Y154839D01*
G37*
%LPD*%
%LPC*%
G36*
X56688Y914839D02*
X56688Y914839D01*
X50288Y916554D01*
X44551Y919866D01*
X39866Y924551D01*
X36554Y930288D01*
X34839Y936688D01*
X34839Y943312D01*
X36554Y949712D01*
X39866Y955449D01*
X44551Y960134D01*
X50288Y963446D01*
X56688Y965161D01*
X63312Y965161D01*
X69712Y963446D01*
X75449Y960134D01*
X80134Y955449D01*
X83446Y949712D01*
X85161Y943312D01*
X85161Y936688D01*
X83446Y930288D01*
X80134Y924551D01*
X75449Y919866D01*
X69712Y916554D01*
X63312Y914839D01*
X56688Y914839D01*
G37*
%LPD*%
%LPC*%
G36*
X302602Y605563D02*
X302602Y605563D01*
X299493Y608672D01*
X299493Y613068D01*
X302290Y615865D01*
X302343Y615939D01*
X302403Y616009D01*
X302415Y616039D01*
X302434Y616065D01*
X302461Y616152D01*
X302495Y616237D01*
X302499Y616278D01*
X302506Y616300D01*
X302505Y616332D01*
X302513Y616403D01*
X302513Y710347D01*
X317677Y725511D01*
X317704Y725548D01*
X317737Y725579D01*
X317775Y725647D01*
X317820Y725710D01*
X317834Y725754D01*
X317856Y725795D01*
X317870Y725871D01*
X317893Y725945D01*
X317891Y725991D01*
X317900Y726037D01*
X317888Y726114D01*
X317886Y726191D01*
X317871Y726234D01*
X317864Y726280D01*
X317829Y726349D01*
X317802Y726422D01*
X317773Y726458D01*
X317752Y726499D01*
X317697Y726554D01*
X317648Y726614D01*
X317609Y726639D01*
X317577Y726671D01*
X317457Y726737D01*
X317441Y726747D01*
X317436Y726749D01*
X317430Y726752D01*
X317200Y726847D01*
X314627Y729420D01*
X313235Y732781D01*
X313235Y736419D01*
X314627Y739780D01*
X317200Y742353D01*
X320561Y743745D01*
X339439Y743745D01*
X342800Y742353D01*
X345373Y739780D01*
X346765Y736419D01*
X346765Y732781D01*
X345373Y729420D01*
X342800Y726847D01*
X339439Y725455D01*
X324405Y725455D01*
X324314Y725441D01*
X324224Y725433D01*
X324194Y725421D01*
X324162Y725416D01*
X324081Y725373D01*
X323997Y725337D01*
X323965Y725311D01*
X323944Y725300D01*
X323922Y725277D01*
X323866Y725232D01*
X317152Y718518D01*
X317095Y718439D01*
X317033Y718364D01*
X317023Y718339D01*
X317008Y718318D01*
X316979Y718225D01*
X316945Y718134D01*
X316943Y718108D01*
X316936Y718083D01*
X316938Y717986D01*
X316934Y717888D01*
X316941Y717863D01*
X316942Y717837D01*
X316976Y717746D01*
X317003Y717652D01*
X317018Y717631D01*
X317027Y717606D01*
X317087Y717530D01*
X317143Y717450D01*
X317164Y717434D01*
X317180Y717414D01*
X317262Y717361D01*
X317340Y717303D01*
X317365Y717295D01*
X317387Y717281D01*
X317482Y717257D01*
X317574Y717227D01*
X317600Y717227D01*
X317626Y717221D01*
X317723Y717229D01*
X317820Y717229D01*
X317852Y717239D01*
X317871Y717240D01*
X317901Y717253D01*
X317981Y717276D01*
X320561Y718345D01*
X339439Y718345D01*
X342800Y716953D01*
X345373Y714380D01*
X346765Y711019D01*
X346765Y707381D01*
X345373Y704020D01*
X342800Y701447D01*
X339439Y700055D01*
X320561Y700055D01*
X317200Y701447D01*
X314627Y704020D01*
X313235Y707381D01*
X313235Y711019D01*
X314304Y713599D01*
X314326Y713694D01*
X314355Y713787D01*
X314354Y713813D01*
X314360Y713838D01*
X314351Y713935D01*
X314348Y714032D01*
X314339Y714057D01*
X314337Y714083D01*
X314297Y714172D01*
X314264Y714263D01*
X314248Y714284D01*
X314237Y714308D01*
X314171Y714380D01*
X314110Y714456D01*
X314088Y714470D01*
X314070Y714489D01*
X313985Y714536D01*
X313903Y714589D01*
X313878Y714595D01*
X313855Y714608D01*
X313759Y714625D01*
X313665Y714649D01*
X313639Y714647D01*
X313613Y714651D01*
X313516Y714637D01*
X313420Y714629D01*
X313396Y714619D01*
X313370Y714615D01*
X313283Y714571D01*
X313193Y714533D01*
X313168Y714513D01*
X313150Y714504D01*
X313127Y714480D01*
X313062Y714428D01*
X307310Y708676D01*
X307257Y708602D01*
X307197Y708532D01*
X307185Y708502D01*
X307166Y708476D01*
X307139Y708389D01*
X307105Y708304D01*
X307101Y708263D01*
X307094Y708241D01*
X307095Y708209D01*
X307087Y708137D01*
X307087Y616403D01*
X307101Y616313D01*
X307109Y616222D01*
X307121Y616193D01*
X307126Y616161D01*
X307169Y616080D01*
X307205Y615996D01*
X307231Y615964D01*
X307242Y615943D01*
X307265Y615921D01*
X307310Y615865D01*
X310107Y613068D01*
X310107Y608672D01*
X306998Y605563D01*
X302602Y605563D01*
G37*
%LPD*%
%LPC*%
G36*
X472961Y649255D02*
X472961Y649255D01*
X469600Y650647D01*
X467027Y653220D01*
X465635Y656581D01*
X465635Y660219D01*
X467027Y663580D01*
X469600Y666153D01*
X472961Y667545D01*
X491839Y667545D01*
X495200Y666153D01*
X497773Y663580D01*
X498776Y661157D01*
X498838Y661057D01*
X498898Y660957D01*
X498903Y660953D01*
X498906Y660948D01*
X498996Y660873D01*
X499085Y660797D01*
X499091Y660795D01*
X499095Y660791D01*
X499204Y660749D01*
X499313Y660705D01*
X499320Y660704D01*
X499325Y660703D01*
X499343Y660702D01*
X499480Y660687D01*
X519437Y660687D01*
X519528Y660701D01*
X519618Y660709D01*
X519648Y660721D01*
X519680Y660726D01*
X519761Y660769D01*
X519845Y660805D01*
X519877Y660831D01*
X519898Y660842D01*
X519920Y660865D01*
X519976Y660910D01*
X543590Y684524D01*
X543643Y684598D01*
X543703Y684668D01*
X543715Y684698D01*
X543734Y684724D01*
X543761Y684811D01*
X543795Y684896D01*
X543799Y684937D01*
X543806Y684959D01*
X543805Y684991D01*
X543813Y685063D01*
X543813Y803910D01*
X543810Y803930D01*
X543812Y803949D01*
X543790Y804051D01*
X543774Y804153D01*
X543764Y804170D01*
X543760Y804190D01*
X543707Y804279D01*
X543658Y804370D01*
X543644Y804384D01*
X543634Y804401D01*
X543555Y804468D01*
X543480Y804540D01*
X543462Y804548D01*
X543447Y804561D01*
X543351Y804600D01*
X543257Y804643D01*
X543237Y804645D01*
X543219Y804653D01*
X543052Y804671D01*
X542733Y804671D01*
X537971Y809433D01*
X537971Y816167D01*
X542733Y820929D01*
X549467Y820929D01*
X554229Y816167D01*
X554229Y809433D01*
X549467Y804671D01*
X549148Y804671D01*
X549128Y804668D01*
X549109Y804670D01*
X549007Y804648D01*
X548905Y804632D01*
X548888Y804622D01*
X548868Y804618D01*
X548779Y804565D01*
X548688Y804516D01*
X548674Y804502D01*
X548657Y804492D01*
X548590Y804413D01*
X548518Y804338D01*
X548510Y804320D01*
X548497Y804305D01*
X548458Y804209D01*
X548415Y804115D01*
X548413Y804095D01*
X548405Y804077D01*
X548387Y803910D01*
X548387Y682853D01*
X521647Y656113D01*
X499480Y656113D01*
X499365Y656094D01*
X499249Y656077D01*
X499243Y656075D01*
X499237Y656074D01*
X499134Y656019D01*
X499029Y655966D01*
X499025Y655961D01*
X499020Y655958D01*
X498940Y655874D01*
X498857Y655790D01*
X498854Y655784D01*
X498850Y655780D01*
X498842Y655763D01*
X498776Y655643D01*
X497773Y653220D01*
X495200Y650647D01*
X491839Y649255D01*
X472961Y649255D01*
G37*
%LPD*%
%LPC*%
G36*
X472961Y877855D02*
X472961Y877855D01*
X469600Y879247D01*
X467027Y881820D01*
X465635Y885181D01*
X465635Y888819D01*
X467027Y892180D01*
X469600Y894753D01*
X472961Y896145D01*
X491839Y896145D01*
X494419Y895076D01*
X494514Y895054D01*
X494607Y895025D01*
X494633Y895026D01*
X494658Y895020D01*
X494755Y895029D01*
X494853Y895032D01*
X494877Y895041D01*
X494903Y895043D01*
X494992Y895083D01*
X495084Y895116D01*
X495104Y895132D01*
X495128Y895143D01*
X495199Y895209D01*
X495276Y895270D01*
X495290Y895292D01*
X495309Y895309D01*
X495356Y895395D01*
X495409Y895477D01*
X495415Y895502D01*
X495428Y895525D01*
X495445Y895621D01*
X495469Y895715D01*
X495467Y895741D01*
X495471Y895767D01*
X495457Y895864D01*
X495449Y895960D01*
X495439Y895984D01*
X495435Y896010D01*
X495391Y896097D01*
X495353Y896187D01*
X495333Y896212D01*
X495324Y896230D01*
X495300Y896253D01*
X495248Y896318D01*
X488534Y903032D01*
X488460Y903085D01*
X488390Y903145D01*
X488360Y903157D01*
X488334Y903176D01*
X488247Y903203D01*
X488162Y903237D01*
X488121Y903241D01*
X488099Y903248D01*
X488067Y903247D01*
X487996Y903255D01*
X472961Y903255D01*
X469600Y904647D01*
X467027Y907220D01*
X465635Y910581D01*
X465635Y914219D01*
X467027Y917580D01*
X469600Y920153D01*
X472961Y921545D01*
X491839Y921545D01*
X495200Y920153D01*
X497773Y917580D01*
X499165Y914219D01*
X499165Y910581D01*
X497773Y907220D01*
X495200Y904647D01*
X494970Y904552D01*
X494931Y904528D01*
X494888Y904512D01*
X494827Y904464D01*
X494761Y904423D01*
X494732Y904387D01*
X494696Y904359D01*
X494654Y904293D01*
X494604Y904233D01*
X494588Y904190D01*
X494563Y904152D01*
X494544Y904076D01*
X494516Y904004D01*
X494514Y903958D01*
X494503Y903913D01*
X494509Y903836D01*
X494506Y903758D01*
X494519Y903714D01*
X494522Y903668D01*
X494553Y903596D01*
X494574Y903522D01*
X494600Y903484D01*
X494618Y903442D01*
X494704Y903335D01*
X494715Y903320D01*
X494719Y903317D01*
X494723Y903311D01*
X506524Y891510D01*
X506598Y891457D01*
X506668Y891397D01*
X506698Y891385D01*
X506724Y891366D01*
X506811Y891339D01*
X506896Y891305D01*
X506937Y891301D01*
X506959Y891294D01*
X506991Y891295D01*
X507063Y891287D01*
X537210Y891287D01*
X537230Y891290D01*
X537249Y891288D01*
X537351Y891310D01*
X537453Y891326D01*
X537470Y891336D01*
X537490Y891340D01*
X537579Y891393D01*
X537670Y891442D01*
X537684Y891456D01*
X537701Y891466D01*
X537768Y891545D01*
X537840Y891620D01*
X537848Y891638D01*
X537861Y891653D01*
X537900Y891749D01*
X537943Y891843D01*
X537945Y891863D01*
X537953Y891881D01*
X537971Y892048D01*
X537971Y892367D01*
X542733Y897129D01*
X549467Y897129D01*
X554229Y892367D01*
X554229Y885633D01*
X549467Y880871D01*
X542733Y880871D01*
X537971Y885633D01*
X537971Y885952D01*
X537968Y885972D01*
X537970Y885991D01*
X537948Y886093D01*
X537932Y886195D01*
X537922Y886212D01*
X537918Y886232D01*
X537865Y886321D01*
X537816Y886412D01*
X537802Y886426D01*
X537792Y886443D01*
X537713Y886510D01*
X537638Y886582D01*
X537620Y886590D01*
X537605Y886603D01*
X537509Y886642D01*
X537415Y886685D01*
X537395Y886687D01*
X537377Y886695D01*
X537210Y886713D01*
X504853Y886713D01*
X503290Y888276D01*
X499338Y892228D01*
X499262Y892283D01*
X499196Y892339D01*
X499191Y892341D01*
X499184Y892347D01*
X499159Y892357D01*
X499138Y892372D01*
X499045Y892401D01*
X499017Y892411D01*
X498968Y892431D01*
X498965Y892431D01*
X498954Y892435D01*
X498928Y892437D01*
X498903Y892444D01*
X498859Y892443D01*
X498801Y892449D01*
X498800Y892449D01*
X498764Y892444D01*
X498708Y892446D01*
X498683Y892439D01*
X498657Y892438D01*
X498598Y892416D01*
X498557Y892410D01*
X498526Y892393D01*
X498472Y892377D01*
X498451Y892362D01*
X498426Y892353D01*
X498377Y892314D01*
X498340Y892295D01*
X498315Y892268D01*
X498270Y892237D01*
X498254Y892216D01*
X498234Y892200D01*
X498201Y892148D01*
X498171Y892116D01*
X498155Y892082D01*
X498123Y892040D01*
X498115Y892015D01*
X498101Y891993D01*
X498086Y891935D01*
X498067Y891893D01*
X498063Y891854D01*
X498047Y891806D01*
X498047Y891780D01*
X498041Y891754D01*
X498045Y891697D01*
X498040Y891649D01*
X498049Y891608D01*
X498049Y891560D01*
X498059Y891528D01*
X498060Y891509D01*
X498073Y891479D01*
X498089Y891423D01*
X498092Y891408D01*
X498094Y891405D01*
X498096Y891399D01*
X499165Y888819D01*
X499165Y885181D01*
X497773Y881820D01*
X495200Y879247D01*
X491839Y877855D01*
X472961Y877855D01*
G37*
%LPD*%
%LPC*%
G36*
X34896Y760193D02*
X34896Y760193D01*
X29093Y765996D01*
X29093Y774204D01*
X34896Y780007D01*
X43104Y780007D01*
X48907Y774204D01*
X48907Y773148D01*
X48910Y773128D01*
X48908Y773109D01*
X48930Y773007D01*
X48946Y772905D01*
X48956Y772888D01*
X48960Y772868D01*
X49013Y772779D01*
X49062Y772688D01*
X49076Y772674D01*
X49086Y772657D01*
X49165Y772590D01*
X49240Y772518D01*
X49258Y772510D01*
X49273Y772497D01*
X49369Y772458D01*
X49463Y772415D01*
X49483Y772413D01*
X49501Y772405D01*
X49668Y772387D01*
X182510Y772387D01*
X182530Y772390D01*
X182549Y772388D01*
X182651Y772410D01*
X182753Y772426D01*
X182770Y772436D01*
X182790Y772440D01*
X182879Y772493D01*
X182970Y772542D01*
X182984Y772556D01*
X183001Y772566D01*
X183068Y772645D01*
X183140Y772720D01*
X183148Y772738D01*
X183161Y772753D01*
X183200Y772849D01*
X183243Y772943D01*
X183245Y772963D01*
X183253Y772981D01*
X183271Y773148D01*
X183271Y773467D01*
X188033Y778229D01*
X194767Y778229D01*
X199529Y773467D01*
X199529Y766733D01*
X194767Y761971D01*
X188033Y761971D01*
X183271Y766733D01*
X183271Y767052D01*
X183268Y767072D01*
X183270Y767091D01*
X183248Y767193D01*
X183232Y767295D01*
X183222Y767312D01*
X183218Y767332D01*
X183165Y767421D01*
X183116Y767512D01*
X183102Y767526D01*
X183092Y767543D01*
X183013Y767610D01*
X182938Y767682D01*
X182920Y767690D01*
X182905Y767703D01*
X182809Y767742D01*
X182715Y767785D01*
X182695Y767787D01*
X182677Y767795D01*
X182510Y767813D01*
X49668Y767813D01*
X49648Y767810D01*
X49629Y767812D01*
X49527Y767790D01*
X49425Y767774D01*
X49408Y767764D01*
X49388Y767760D01*
X49299Y767707D01*
X49208Y767658D01*
X49194Y767644D01*
X49177Y767634D01*
X49110Y767555D01*
X49038Y767480D01*
X49030Y767462D01*
X49017Y767447D01*
X48978Y767351D01*
X48935Y767257D01*
X48933Y767237D01*
X48925Y767219D01*
X48907Y767052D01*
X48907Y765996D01*
X43104Y760193D01*
X34896Y760193D01*
G37*
%LPD*%
%LPC*%
G36*
X34896Y849093D02*
X34896Y849093D01*
X29093Y854896D01*
X29093Y863104D01*
X34896Y868907D01*
X43104Y868907D01*
X48907Y863104D01*
X48907Y862048D01*
X48910Y862028D01*
X48908Y862009D01*
X48930Y861907D01*
X48946Y861805D01*
X48956Y861788D01*
X48960Y861768D01*
X49013Y861679D01*
X49062Y861588D01*
X49076Y861574D01*
X49086Y861557D01*
X49165Y861490D01*
X49240Y861418D01*
X49258Y861410D01*
X49273Y861397D01*
X49369Y861358D01*
X49463Y861315D01*
X49483Y861313D01*
X49501Y861305D01*
X49668Y861287D01*
X157110Y861287D01*
X157130Y861290D01*
X157149Y861288D01*
X157251Y861310D01*
X157353Y861326D01*
X157370Y861336D01*
X157390Y861340D01*
X157479Y861393D01*
X157570Y861442D01*
X157584Y861456D01*
X157601Y861466D01*
X157668Y861545D01*
X157740Y861620D01*
X157748Y861638D01*
X157761Y861653D01*
X157800Y861749D01*
X157843Y861843D01*
X157845Y861863D01*
X157853Y861881D01*
X157871Y862048D01*
X157871Y862367D01*
X162633Y867129D01*
X169367Y867129D01*
X174129Y862367D01*
X174129Y855633D01*
X169367Y850871D01*
X162633Y850871D01*
X157871Y855633D01*
X157871Y855952D01*
X157868Y855972D01*
X157870Y855991D01*
X157848Y856093D01*
X157832Y856195D01*
X157822Y856212D01*
X157818Y856232D01*
X157765Y856321D01*
X157716Y856412D01*
X157702Y856426D01*
X157692Y856443D01*
X157613Y856510D01*
X157538Y856582D01*
X157520Y856590D01*
X157505Y856603D01*
X157409Y856642D01*
X157315Y856685D01*
X157295Y856687D01*
X157277Y856695D01*
X157110Y856713D01*
X49668Y856713D01*
X49648Y856710D01*
X49629Y856712D01*
X49527Y856690D01*
X49425Y856674D01*
X49408Y856664D01*
X49388Y856660D01*
X49299Y856607D01*
X49208Y856558D01*
X49194Y856544D01*
X49177Y856534D01*
X49110Y856455D01*
X49038Y856380D01*
X49030Y856362D01*
X49017Y856347D01*
X48978Y856251D01*
X48935Y856157D01*
X48933Y856137D01*
X48925Y856119D01*
X48907Y855952D01*
X48907Y854896D01*
X43104Y849093D01*
X34896Y849093D01*
G37*
%LPD*%
%LPC*%
G36*
X207018Y54875D02*
X207018Y54875D01*
X206125Y55768D01*
X206125Y82432D01*
X207018Y83325D01*
X220982Y83325D01*
X221875Y82432D01*
X221875Y72148D01*
X221878Y72128D01*
X221876Y72109D01*
X221898Y72007D01*
X221914Y71905D01*
X221924Y71888D01*
X221928Y71868D01*
X221981Y71779D01*
X222030Y71688D01*
X222044Y71674D01*
X222054Y71657D01*
X222133Y71590D01*
X222208Y71518D01*
X222226Y71510D01*
X222241Y71497D01*
X222337Y71458D01*
X222431Y71415D01*
X222451Y71413D01*
X222469Y71405D01*
X222636Y71387D01*
X257067Y71387D01*
X257157Y71401D01*
X257248Y71409D01*
X257277Y71421D01*
X257309Y71426D01*
X257390Y71469D01*
X257474Y71505D01*
X257506Y71531D01*
X257527Y71542D01*
X257549Y71565D01*
X257605Y71610D01*
X260502Y74507D01*
X264898Y74507D01*
X268007Y71398D01*
X268007Y67002D01*
X264898Y63893D01*
X260502Y63893D01*
X257805Y66590D01*
X257731Y66643D01*
X257661Y66703D01*
X257631Y66715D01*
X257605Y66734D01*
X257518Y66761D01*
X257433Y66795D01*
X257392Y66799D01*
X257370Y66806D01*
X257338Y66805D01*
X257267Y66813D01*
X222636Y66813D01*
X222616Y66810D01*
X222597Y66812D01*
X222495Y66790D01*
X222393Y66774D01*
X222376Y66764D01*
X222356Y66760D01*
X222267Y66707D01*
X222176Y66658D01*
X222162Y66644D01*
X222145Y66634D01*
X222078Y66555D01*
X222006Y66480D01*
X221998Y66462D01*
X221985Y66447D01*
X221946Y66351D01*
X221903Y66257D01*
X221901Y66237D01*
X221893Y66219D01*
X221875Y66052D01*
X221875Y55768D01*
X220982Y54875D01*
X207018Y54875D01*
G37*
%LPD*%
%LPC*%
G36*
X207018Y16775D02*
X207018Y16775D01*
X206125Y17668D01*
X206125Y44332D01*
X207018Y45225D01*
X220982Y45225D01*
X221875Y44332D01*
X221875Y34083D01*
X221878Y34062D01*
X221876Y34041D01*
X221898Y33941D01*
X221914Y33841D01*
X221925Y33822D01*
X221929Y33801D01*
X221982Y33713D01*
X222030Y33623D01*
X222045Y33609D01*
X222056Y33590D01*
X222134Y33524D01*
X222208Y33454D01*
X222227Y33445D01*
X222244Y33431D01*
X222338Y33393D01*
X222431Y33350D01*
X222452Y33348D01*
X222472Y33340D01*
X222639Y33322D01*
X257147Y33464D01*
X257235Y33479D01*
X257325Y33486D01*
X257356Y33499D01*
X257389Y33505D01*
X257469Y33547D01*
X257551Y33582D01*
X257585Y33609D01*
X257606Y33621D01*
X257628Y33644D01*
X257682Y33687D01*
X260502Y36507D01*
X264898Y36507D01*
X268007Y33398D01*
X268007Y29002D01*
X264898Y25893D01*
X260502Y25893D01*
X257727Y28668D01*
X257652Y28722D01*
X257581Y28782D01*
X257553Y28793D01*
X257528Y28811D01*
X257439Y28839D01*
X257353Y28873D01*
X257314Y28877D01*
X257293Y28884D01*
X257260Y28883D01*
X257186Y28891D01*
X222633Y28749D01*
X222615Y28746D01*
X222597Y28748D01*
X222494Y28725D01*
X222390Y28708D01*
X222374Y28699D01*
X222356Y28695D01*
X222266Y28642D01*
X222173Y28592D01*
X222161Y28579D01*
X222145Y28569D01*
X222077Y28489D01*
X222005Y28413D01*
X221997Y28396D01*
X221985Y28382D01*
X221946Y28285D01*
X221902Y28189D01*
X221900Y28171D01*
X221893Y28154D01*
X221875Y27987D01*
X221875Y17668D01*
X220982Y16775D01*
X207018Y16775D01*
G37*
%LPD*%
%LPC*%
G36*
X230508Y599185D02*
X230508Y599185D01*
X229615Y600078D01*
X229615Y626742D01*
X230508Y627635D01*
X244472Y627635D01*
X245365Y626742D01*
X245365Y613918D01*
X245368Y613898D01*
X245366Y613879D01*
X245388Y613777D01*
X245404Y613675D01*
X245414Y613658D01*
X245418Y613638D01*
X245471Y613549D01*
X245520Y613458D01*
X245534Y613444D01*
X245544Y613427D01*
X245623Y613360D01*
X245698Y613288D01*
X245716Y613280D01*
X245731Y613267D01*
X245827Y613228D01*
X245921Y613185D01*
X245941Y613183D01*
X245959Y613175D01*
X246126Y613157D01*
X273867Y613157D01*
X273957Y613171D01*
X274048Y613179D01*
X274077Y613191D01*
X274109Y613196D01*
X274190Y613239D01*
X274274Y613275D01*
X274306Y613301D01*
X274327Y613312D01*
X274349Y613335D01*
X274405Y613380D01*
X277202Y616177D01*
X281598Y616177D01*
X284707Y613068D01*
X284707Y608672D01*
X281598Y605563D01*
X277202Y605563D01*
X274405Y608360D01*
X274331Y608413D01*
X274261Y608473D01*
X274231Y608485D01*
X274205Y608504D01*
X274118Y608531D01*
X274033Y608565D01*
X273992Y608569D01*
X273970Y608576D01*
X273938Y608575D01*
X273867Y608583D01*
X246126Y608583D01*
X246106Y608580D01*
X246087Y608582D01*
X245985Y608560D01*
X245883Y608544D01*
X245866Y608534D01*
X245846Y608530D01*
X245757Y608477D01*
X245666Y608428D01*
X245652Y608414D01*
X245635Y608404D01*
X245568Y608325D01*
X245496Y608250D01*
X245488Y608232D01*
X245475Y608217D01*
X245436Y608121D01*
X245393Y608027D01*
X245391Y608007D01*
X245383Y607989D01*
X245365Y607822D01*
X245365Y600078D01*
X244472Y599185D01*
X230508Y599185D01*
G37*
%LPD*%
%LPC*%
G36*
X230508Y561085D02*
X230508Y561085D01*
X229615Y561978D01*
X229615Y588642D01*
X230508Y589535D01*
X244472Y589535D01*
X245365Y588642D01*
X245365Y578358D01*
X245368Y578338D01*
X245366Y578319D01*
X245388Y578217D01*
X245404Y578115D01*
X245414Y578098D01*
X245418Y578078D01*
X245471Y577989D01*
X245520Y577898D01*
X245534Y577884D01*
X245544Y577867D01*
X245623Y577800D01*
X245698Y577728D01*
X245716Y577720D01*
X245731Y577707D01*
X245827Y577668D01*
X245921Y577625D01*
X245941Y577623D01*
X245959Y577615D01*
X246126Y577597D01*
X248467Y577597D01*
X248557Y577611D01*
X248648Y577619D01*
X248677Y577631D01*
X248709Y577636D01*
X248790Y577679D01*
X248874Y577715D01*
X248906Y577741D01*
X248927Y577752D01*
X248949Y577775D01*
X249005Y577820D01*
X251802Y580617D01*
X256198Y580617D01*
X259307Y577508D01*
X259307Y573112D01*
X256198Y570003D01*
X251802Y570003D01*
X249005Y572800D01*
X248931Y572853D01*
X248861Y572913D01*
X248831Y572925D01*
X248805Y572944D01*
X248718Y572971D01*
X248633Y573005D01*
X248592Y573009D01*
X248570Y573016D01*
X248538Y573015D01*
X248467Y573023D01*
X246126Y573023D01*
X246106Y573020D01*
X246087Y573022D01*
X245985Y573000D01*
X245883Y572984D01*
X245866Y572974D01*
X245846Y572970D01*
X245757Y572917D01*
X245666Y572868D01*
X245652Y572854D01*
X245635Y572844D01*
X245568Y572765D01*
X245496Y572690D01*
X245488Y572672D01*
X245475Y572657D01*
X245436Y572561D01*
X245393Y572467D01*
X245391Y572447D01*
X245383Y572429D01*
X245365Y572262D01*
X245365Y561978D01*
X244472Y561085D01*
X230508Y561085D01*
G37*
%LPD*%
%LPC*%
G36*
X320561Y928655D02*
X320561Y928655D01*
X317200Y930047D01*
X314627Y932620D01*
X313235Y935981D01*
X313235Y939619D01*
X314627Y942980D01*
X317200Y945553D01*
X320561Y946945D01*
X339439Y946945D01*
X342800Y945553D01*
X345373Y942980D01*
X346765Y939619D01*
X346765Y935981D01*
X345373Y932620D01*
X342800Y930047D01*
X339439Y928655D01*
X320561Y928655D01*
G37*
%LPD*%
%LPC*%
G36*
X320561Y750855D02*
X320561Y750855D01*
X317200Y752247D01*
X314627Y754820D01*
X313235Y758181D01*
X313235Y761819D01*
X314627Y765180D01*
X317200Y767753D01*
X320561Y769145D01*
X339439Y769145D01*
X342800Y767753D01*
X345373Y765180D01*
X346765Y761819D01*
X346765Y758181D01*
X345373Y754820D01*
X342800Y752247D01*
X339439Y750855D01*
X320561Y750855D01*
G37*
%LPD*%
%LPC*%
G36*
X472961Y827055D02*
X472961Y827055D01*
X469600Y828447D01*
X467027Y831020D01*
X465635Y834381D01*
X465635Y838019D01*
X467027Y841380D01*
X469600Y843953D01*
X472961Y845345D01*
X491839Y845345D01*
X495200Y843953D01*
X497773Y841380D01*
X499165Y838019D01*
X499165Y834381D01*
X497773Y831020D01*
X495200Y828447D01*
X491839Y827055D01*
X472961Y827055D01*
G37*
%LPD*%
%LPC*%
G36*
X320561Y827055D02*
X320561Y827055D01*
X317200Y828447D01*
X314627Y831020D01*
X313235Y834381D01*
X313235Y838019D01*
X314627Y841380D01*
X317200Y843953D01*
X320561Y845345D01*
X339439Y845345D01*
X342800Y843953D01*
X345373Y841380D01*
X346765Y838019D01*
X346765Y834381D01*
X345373Y831020D01*
X342800Y828447D01*
X339439Y827055D01*
X320561Y827055D01*
G37*
%LPD*%
%LPC*%
G36*
X320561Y801655D02*
X320561Y801655D01*
X317200Y803047D01*
X314627Y805620D01*
X313235Y808981D01*
X313235Y812619D01*
X314627Y815980D01*
X317200Y818553D01*
X320561Y819945D01*
X339439Y819945D01*
X342800Y818553D01*
X345373Y815980D01*
X346765Y812619D01*
X346765Y808981D01*
X345373Y805620D01*
X342800Y803047D01*
X339439Y801655D01*
X320561Y801655D01*
G37*
%LPD*%
%LPC*%
G36*
X320561Y903255D02*
X320561Y903255D01*
X317200Y904647D01*
X314627Y907220D01*
X313235Y910581D01*
X313235Y914219D01*
X314627Y917580D01*
X317200Y920153D01*
X320561Y921545D01*
X339439Y921545D01*
X342800Y920153D01*
X345373Y917580D01*
X346765Y914219D01*
X346765Y910581D01*
X345373Y907220D01*
X342800Y904647D01*
X339439Y903255D01*
X320561Y903255D01*
G37*
%LPD*%
%LPC*%
G36*
X472961Y928655D02*
X472961Y928655D01*
X469600Y930047D01*
X467027Y932620D01*
X465635Y935981D01*
X465635Y939619D01*
X467027Y942980D01*
X469600Y945553D01*
X472961Y946945D01*
X491839Y946945D01*
X495200Y945553D01*
X497773Y942980D01*
X499165Y939619D01*
X499165Y935981D01*
X497773Y932620D01*
X495200Y930047D01*
X491839Y928655D01*
X472961Y928655D01*
G37*
%LPD*%
%LPC*%
G36*
X472961Y573055D02*
X472961Y573055D01*
X469600Y574447D01*
X467027Y577020D01*
X465635Y580381D01*
X465635Y584019D01*
X467027Y587380D01*
X469600Y589953D01*
X472961Y591345D01*
X491839Y591345D01*
X495200Y589953D01*
X497773Y587380D01*
X499165Y584019D01*
X499165Y580381D01*
X497773Y577020D01*
X495200Y574447D01*
X491839Y573055D01*
X472961Y573055D01*
G37*
%LPD*%
%LPC*%
G36*
X320561Y776255D02*
X320561Y776255D01*
X317200Y777647D01*
X314627Y780220D01*
X313235Y783581D01*
X313235Y787219D01*
X314627Y790580D01*
X317200Y793153D01*
X320561Y794545D01*
X339439Y794545D01*
X342800Y793153D01*
X345373Y790580D01*
X346765Y787219D01*
X346765Y783581D01*
X345373Y780220D01*
X342800Y777647D01*
X339439Y776255D01*
X320561Y776255D01*
G37*
%LPD*%
%LPC*%
G36*
X472961Y674655D02*
X472961Y674655D01*
X469600Y676047D01*
X467027Y678620D01*
X465635Y681981D01*
X465635Y685619D01*
X467027Y688980D01*
X469600Y691553D01*
X472961Y692945D01*
X491839Y692945D01*
X495200Y691553D01*
X497773Y688980D01*
X499165Y685619D01*
X499165Y681981D01*
X497773Y678620D01*
X495200Y676047D01*
X491839Y674655D01*
X472961Y674655D01*
G37*
%LPD*%
%LPC*%
G36*
X320561Y649255D02*
X320561Y649255D01*
X317200Y650647D01*
X314627Y653220D01*
X313235Y656581D01*
X313235Y660219D01*
X314627Y663580D01*
X317200Y666153D01*
X320561Y667545D01*
X339439Y667545D01*
X342800Y666153D01*
X345373Y663580D01*
X346765Y660219D01*
X346765Y656581D01*
X345373Y653220D01*
X342800Y650647D01*
X339439Y649255D01*
X320561Y649255D01*
G37*
%LPD*%
%LPC*%
G36*
X320561Y623855D02*
X320561Y623855D01*
X317200Y625247D01*
X314627Y627820D01*
X313235Y631181D01*
X313235Y634819D01*
X314627Y638180D01*
X317200Y640753D01*
X320561Y642145D01*
X339439Y642145D01*
X342800Y640753D01*
X345373Y638180D01*
X346765Y634819D01*
X346765Y631181D01*
X345373Y627820D01*
X342800Y625247D01*
X339439Y623855D01*
X320561Y623855D01*
G37*
%LPD*%
%LPC*%
G36*
X320561Y674655D02*
X320561Y674655D01*
X317200Y676047D01*
X314627Y678620D01*
X313235Y681981D01*
X313235Y685619D01*
X314627Y688980D01*
X317200Y691553D01*
X320561Y692945D01*
X339439Y692945D01*
X342800Y691553D01*
X345373Y688980D01*
X346765Y685619D01*
X346765Y681981D01*
X345373Y678620D01*
X342800Y676047D01*
X339439Y674655D01*
X320561Y674655D01*
G37*
%LPD*%
%LPC*%
G36*
X472961Y623855D02*
X472961Y623855D01*
X469600Y625247D01*
X467027Y627820D01*
X465635Y631181D01*
X465635Y634819D01*
X467027Y638180D01*
X469600Y640753D01*
X472961Y642145D01*
X491839Y642145D01*
X495200Y640753D01*
X497773Y638180D01*
X499165Y634819D01*
X499165Y631181D01*
X497773Y627820D01*
X495200Y625247D01*
X491839Y623855D01*
X472961Y623855D01*
G37*
%LPD*%
%LPC*%
G36*
X472961Y852455D02*
X472961Y852455D01*
X469600Y853847D01*
X467027Y856420D01*
X465635Y859781D01*
X465635Y863419D01*
X467027Y866780D01*
X469600Y869353D01*
X472961Y870745D01*
X491839Y870745D01*
X495200Y869353D01*
X497773Y866780D01*
X499165Y863419D01*
X499165Y859781D01*
X497773Y856420D01*
X495200Y853847D01*
X491839Y852455D01*
X472961Y852455D01*
G37*
%LPD*%
%LPC*%
G36*
X472961Y725455D02*
X472961Y725455D01*
X469600Y726847D01*
X467027Y729420D01*
X465635Y732781D01*
X465635Y736419D01*
X467027Y739780D01*
X469600Y742353D01*
X472961Y743745D01*
X491839Y743745D01*
X495200Y742353D01*
X497773Y739780D01*
X499165Y736419D01*
X499165Y732781D01*
X497773Y729420D01*
X495200Y726847D01*
X491839Y725455D01*
X472961Y725455D01*
G37*
%LPD*%
%LPC*%
G36*
X472961Y598455D02*
X472961Y598455D01*
X469600Y599847D01*
X467027Y602420D01*
X465635Y605781D01*
X465635Y609419D01*
X467027Y612780D01*
X469600Y615353D01*
X472961Y616745D01*
X491839Y616745D01*
X495200Y615353D01*
X497773Y612780D01*
X499165Y609419D01*
X499165Y605781D01*
X497773Y602420D01*
X495200Y599847D01*
X491839Y598455D01*
X472961Y598455D01*
G37*
%LPD*%
%LPC*%
G36*
X320561Y877855D02*
X320561Y877855D01*
X317200Y879247D01*
X314627Y881820D01*
X313235Y885181D01*
X313235Y888819D01*
X314627Y892180D01*
X317200Y894753D01*
X320561Y896145D01*
X339439Y896145D01*
X342800Y894753D01*
X345373Y892180D01*
X346765Y888819D01*
X346765Y885181D01*
X345373Y881820D01*
X342800Y879247D01*
X339439Y877855D01*
X320561Y877855D01*
G37*
%LPD*%
%LPC*%
G36*
X472961Y700055D02*
X472961Y700055D01*
X469600Y701447D01*
X467027Y704020D01*
X465635Y707381D01*
X465635Y711019D01*
X467027Y714380D01*
X469600Y716953D01*
X472961Y718345D01*
X491839Y718345D01*
X495200Y716953D01*
X497773Y714380D01*
X499165Y711019D01*
X499165Y707381D01*
X497773Y704020D01*
X495200Y701447D01*
X491839Y700055D01*
X472961Y700055D01*
G37*
%LPD*%
%LPC*%
G36*
X107297Y439935D02*
X107297Y439935D01*
X103965Y441315D01*
X101415Y443865D01*
X100035Y447197D01*
X100035Y450803D01*
X101415Y454135D01*
X103965Y456685D01*
X107297Y458065D01*
X110903Y458065D01*
X114235Y456685D01*
X116785Y454135D01*
X118165Y450803D01*
X118165Y447197D01*
X116785Y443865D01*
X114235Y441315D01*
X110903Y439935D01*
X107297Y439935D01*
G37*
%LPD*%
%LPC*%
G36*
X238833Y850871D02*
X238833Y850871D01*
X234071Y855633D01*
X234071Y862367D01*
X238833Y867129D01*
X245567Y867129D01*
X250329Y862367D01*
X250329Y855633D01*
X245567Y850871D01*
X238833Y850871D01*
G37*
%LPD*%
%LPC*%
G36*
X264233Y761971D02*
X264233Y761971D01*
X259471Y766733D01*
X259471Y773467D01*
X264233Y778229D01*
X270967Y778229D01*
X275729Y773467D01*
X275729Y766733D01*
X270967Y761971D01*
X264233Y761971D01*
G37*
%LPD*%
%LPC*%
G36*
X331523Y609123D02*
X331523Y609123D01*
X331523Y617761D01*
X338420Y617761D01*
X339999Y617511D01*
X341520Y617016D01*
X342945Y616290D01*
X344239Y615350D01*
X345370Y614219D01*
X346310Y612925D01*
X347036Y611500D01*
X347531Y609979D01*
X347666Y609123D01*
X331523Y609123D01*
G37*
%LPD*%
%LPC*%
G36*
X312334Y609123D02*
X312334Y609123D01*
X312469Y609979D01*
X312964Y611500D01*
X313690Y612925D01*
X314630Y614219D01*
X315761Y615350D01*
X317055Y616290D01*
X318480Y617016D01*
X320001Y617511D01*
X321580Y617761D01*
X328477Y617761D01*
X328477Y609123D01*
X312334Y609123D01*
G37*
%LPD*%
%LPC*%
G36*
X331523Y597439D02*
X331523Y597439D01*
X331523Y606077D01*
X347666Y606077D01*
X347531Y605221D01*
X347036Y603700D01*
X346310Y602275D01*
X345370Y600981D01*
X344239Y599850D01*
X342945Y598910D01*
X341520Y598184D01*
X339999Y597689D01*
X338420Y597439D01*
X331523Y597439D01*
G37*
%LPD*%
%LPC*%
G36*
X321580Y597439D02*
X321580Y597439D01*
X320001Y597689D01*
X318480Y598184D01*
X317055Y598910D01*
X315761Y599850D01*
X314630Y600981D01*
X313690Y602275D01*
X312964Y603700D01*
X312469Y605221D01*
X312334Y606077D01*
X328477Y606077D01*
X328477Y597439D01*
X321580Y597439D01*
G37*
%LPD*%
%LPC*%
G36*
X239013Y691133D02*
X239013Y691133D01*
X239013Y704851D01*
X244174Y704851D01*
X244821Y704678D01*
X245400Y704343D01*
X245873Y703870D01*
X246208Y703291D01*
X246381Y702644D01*
X246381Y691133D01*
X239013Y691133D01*
G37*
%LPD*%
%LPC*%
G36*
X239013Y674369D02*
X239013Y674369D01*
X239013Y688087D01*
X246381Y688087D01*
X246381Y676576D01*
X246208Y675929D01*
X245873Y675350D01*
X245400Y674877D01*
X244821Y674542D01*
X244174Y674369D01*
X239013Y674369D01*
G37*
%LPD*%
%LPC*%
G36*
X228599Y691133D02*
X228599Y691133D01*
X228599Y702644D01*
X228772Y703291D01*
X229107Y703870D01*
X229580Y704343D01*
X230159Y704678D01*
X230806Y704851D01*
X235967Y704851D01*
X235967Y691133D01*
X228599Y691133D01*
G37*
%LPD*%
%LPC*%
G36*
X230806Y674369D02*
X230806Y674369D01*
X230159Y674542D01*
X229580Y674877D01*
X229107Y675350D01*
X228772Y675929D01*
X228599Y676576D01*
X228599Y688087D01*
X235967Y688087D01*
X235967Y674369D01*
X230806Y674369D01*
G37*
%LPD*%
%LPC*%
G36*
X511523Y255523D02*
X511523Y255523D01*
X511523Y265846D01*
X512796Y265645D01*
X514583Y265064D01*
X516257Y264211D01*
X517778Y263106D01*
X519106Y261778D01*
X520211Y260257D01*
X521064Y258583D01*
X521645Y256796D01*
X521846Y255523D01*
X511523Y255523D01*
G37*
%LPD*%
%LPC*%
G36*
X498154Y255523D02*
X498154Y255523D01*
X498355Y256796D01*
X498936Y258583D01*
X499789Y260257D01*
X500894Y261778D01*
X502222Y263106D01*
X503743Y264211D01*
X505417Y265064D01*
X507204Y265645D01*
X508477Y265846D01*
X508477Y255523D01*
X498154Y255523D01*
G37*
%LPD*%
%LPC*%
G36*
X511523Y252477D02*
X511523Y252477D01*
X521846Y252477D01*
X521645Y251204D01*
X521064Y249417D01*
X520211Y247743D01*
X519106Y246222D01*
X517778Y244894D01*
X516257Y243789D01*
X514583Y242936D01*
X512796Y242355D01*
X511523Y242154D01*
X511523Y252477D01*
G37*
%LPD*%
%LPC*%
G36*
X507204Y242355D02*
X507204Y242355D01*
X505417Y242936D01*
X503743Y243789D01*
X502222Y244894D01*
X500894Y246222D01*
X499789Y247743D01*
X498936Y249417D01*
X498355Y251204D01*
X498154Y252477D01*
X508477Y252477D01*
X508477Y242154D01*
X507204Y242355D01*
G37*
%LPD*%
%LPC*%
G36*
X40523Y797023D02*
X40523Y797023D01*
X40523Y806423D01*
X43524Y806423D01*
X49923Y800024D01*
X49923Y797023D01*
X40523Y797023D01*
G37*
%LPD*%
%LPC*%
G36*
X40523Y835123D02*
X40523Y835123D01*
X40523Y844523D01*
X43524Y844523D01*
X49923Y838124D01*
X49923Y835123D01*
X40523Y835123D01*
G37*
%LPD*%
%LPC*%
G36*
X40523Y822677D02*
X40523Y822677D01*
X40523Y832077D01*
X49923Y832077D01*
X49923Y829076D01*
X43524Y822677D01*
X40523Y822677D01*
G37*
%LPD*%
%LPC*%
G36*
X28077Y835123D02*
X28077Y835123D01*
X28077Y838124D01*
X34476Y844523D01*
X37477Y844523D01*
X37477Y835123D01*
X28077Y835123D01*
G37*
%LPD*%
%LPC*%
G36*
X28077Y797023D02*
X28077Y797023D01*
X28077Y800024D01*
X34476Y806423D01*
X37477Y806423D01*
X37477Y797023D01*
X28077Y797023D01*
G37*
%LPD*%
%LPC*%
G36*
X40523Y784577D02*
X40523Y784577D01*
X40523Y793977D01*
X49923Y793977D01*
X49923Y790976D01*
X43524Y784577D01*
X40523Y784577D01*
G37*
%LPD*%
%LPC*%
G36*
X34476Y822677D02*
X34476Y822677D01*
X28077Y829076D01*
X28077Y832077D01*
X37477Y832077D01*
X37477Y822677D01*
X34476Y822677D01*
G37*
%LPD*%
%LPC*%
G36*
X34476Y784577D02*
X34476Y784577D01*
X28077Y790976D01*
X28077Y793977D01*
X37477Y793977D01*
X37477Y784577D01*
X34476Y784577D01*
G37*
%LPD*%
%LPC*%
G36*
X110623Y399723D02*
X110623Y399723D01*
X110623Y408165D01*
X111461Y408033D01*
X112970Y407542D01*
X114383Y406822D01*
X115667Y405889D01*
X116789Y404767D01*
X117722Y403483D01*
X118442Y402070D01*
X118933Y400561D01*
X119065Y399723D01*
X110623Y399723D01*
G37*
%LPD*%
%LPC*%
G36*
X110623Y396677D02*
X110623Y396677D01*
X119065Y396677D01*
X118933Y395839D01*
X118442Y394330D01*
X117722Y392917D01*
X116789Y391633D01*
X115667Y390511D01*
X114383Y389578D01*
X112970Y388858D01*
X111461Y388367D01*
X110623Y388235D01*
X110623Y396677D01*
G37*
%LPD*%
%LPC*%
G36*
X99135Y399723D02*
X99135Y399723D01*
X99267Y400561D01*
X99758Y402070D01*
X100478Y403483D01*
X101411Y404767D01*
X102533Y405889D01*
X103817Y406822D01*
X105230Y407542D01*
X106739Y408033D01*
X107577Y408165D01*
X107577Y399723D01*
X99135Y399723D01*
G37*
%LPD*%
%LPC*%
G36*
X106739Y388367D02*
X106739Y388367D01*
X105230Y388858D01*
X103817Y389578D01*
X102533Y390511D01*
X101411Y391633D01*
X100478Y392917D01*
X99758Y394330D01*
X99267Y395839D01*
X99135Y396677D01*
X107577Y396677D01*
X107577Y388235D01*
X106739Y388367D01*
G37*
%LPD*%
%LPC*%
G36*
X674423Y713023D02*
X674423Y713023D01*
X674423Y720645D01*
X676688Y720645D01*
X682045Y715288D01*
X682045Y713023D01*
X674423Y713023D01*
G37*
%LPD*%
%LPC*%
G36*
X381723Y164223D02*
X381723Y164223D01*
X381723Y171845D01*
X383988Y171845D01*
X389345Y166488D01*
X389345Y164223D01*
X381723Y164223D01*
G37*
%LPD*%
%LPC*%
G36*
X381723Y153555D02*
X381723Y153555D01*
X381723Y161177D01*
X389345Y161177D01*
X389345Y158912D01*
X383988Y153555D01*
X381723Y153555D01*
G37*
%LPD*%
%LPC*%
G36*
X663755Y713023D02*
X663755Y713023D01*
X663755Y715288D01*
X669112Y720645D01*
X671377Y720645D01*
X671377Y713023D01*
X663755Y713023D01*
G37*
%LPD*%
%LPC*%
G36*
X371055Y164223D02*
X371055Y164223D01*
X371055Y166488D01*
X376412Y171845D01*
X378677Y171845D01*
X378677Y164223D01*
X371055Y164223D01*
G37*
%LPD*%
%LPC*%
G36*
X674423Y702355D02*
X674423Y702355D01*
X674423Y709977D01*
X682045Y709977D01*
X682045Y707712D01*
X676688Y702355D01*
X674423Y702355D01*
G37*
%LPD*%
%LPC*%
G36*
X376412Y153555D02*
X376412Y153555D01*
X371055Y158912D01*
X371055Y161177D01*
X378677Y161177D01*
X378677Y153555D01*
X376412Y153555D01*
G37*
%LPD*%
%LPC*%
G36*
X669112Y702355D02*
X669112Y702355D01*
X663755Y707712D01*
X663755Y709977D01*
X671377Y709977D01*
X671377Y702355D01*
X669112Y702355D01*
G37*
%LPD*%
%LPC*%
G36*
X672899Y711499D02*
X672899Y711499D01*
X672899Y711501D01*
X672901Y711501D01*
X672901Y711499D01*
X672899Y711499D01*
G37*
%LPD*%
%LPC*%
G36*
X509999Y253999D02*
X509999Y253999D01*
X509999Y254001D01*
X510001Y254001D01*
X510001Y253999D01*
X509999Y253999D01*
G37*
%LPD*%
%LPC*%
G36*
X109099Y398199D02*
X109099Y398199D01*
X109099Y398201D01*
X109101Y398201D01*
X109101Y398199D01*
X109099Y398199D01*
G37*
%LPD*%
%LPC*%
G36*
X380199Y162699D02*
X380199Y162699D01*
X380199Y162701D01*
X380201Y162701D01*
X380201Y162699D01*
X380199Y162699D01*
G37*
%LPD*%
%LPC*%
G36*
X38999Y795499D02*
X38999Y795499D01*
X38999Y795501D01*
X39001Y795501D01*
X39001Y795499D01*
X38999Y795499D01*
G37*
%LPD*%
%LPC*%
G36*
X329999Y607599D02*
X329999Y607599D01*
X329999Y607601D01*
X330001Y607601D01*
X330001Y607599D01*
X329999Y607599D01*
G37*
%LPD*%
%LPC*%
G36*
X38999Y833599D02*
X38999Y833599D01*
X38999Y833601D01*
X39001Y833601D01*
X39001Y833599D01*
X38999Y833599D01*
G37*
%LPD*%
%LPC*%
G36*
X237489Y689609D02*
X237489Y689609D01*
X237489Y689611D01*
X237491Y689611D01*
X237491Y689609D01*
X237489Y689609D01*
G37*
%LPD*%
D10*
X900000Y254000D03*
X900000Y74000D03*
X510000Y254000D03*
X510000Y74000D03*
D11*
X337620Y937800D02*
X322380Y937800D01*
X322380Y912400D02*
X337620Y912400D01*
X337620Y887000D02*
X322380Y887000D01*
X322380Y861600D02*
X337620Y861600D01*
X337620Y836200D02*
X322380Y836200D01*
X322380Y810800D02*
X337620Y810800D01*
X337620Y785400D02*
X322380Y785400D01*
X322380Y760000D02*
X337620Y760000D01*
X337620Y734600D02*
X322380Y734600D01*
X322380Y709200D02*
X337620Y709200D01*
X337620Y683800D02*
X322380Y683800D01*
X322380Y658400D02*
X337620Y658400D01*
X337620Y633000D02*
X322380Y633000D01*
X322380Y607600D02*
X337620Y607600D01*
X337620Y582200D02*
X322380Y582200D01*
X474780Y582200D02*
X490020Y582200D01*
X490020Y607600D02*
X474780Y607600D01*
X474780Y633000D02*
X490020Y633000D01*
X490020Y658400D02*
X474780Y658400D01*
X474780Y683800D02*
X490020Y683800D01*
X490020Y709200D02*
X474780Y709200D01*
X474780Y734600D02*
X490020Y734600D01*
X490020Y760000D02*
X474780Y760000D01*
X474780Y785400D02*
X490020Y785400D01*
X490020Y810800D02*
X474780Y810800D01*
X474780Y836200D02*
X490020Y836200D01*
X490020Y861600D02*
X474780Y861600D01*
X474780Y887000D02*
X490020Y887000D01*
X490020Y912400D02*
X474780Y912400D01*
X474780Y937800D02*
X490020Y937800D01*
D12*
X39000Y770100D03*
X39000Y795500D03*
D13*
X39000Y859000D03*
X39000Y833600D03*
D14*
X109100Y449000D03*
X109100Y423600D03*
X109100Y398200D03*
D11*
X921380Y732200D02*
X936620Y732200D01*
X936620Y706800D02*
X921380Y706800D01*
X921380Y681400D02*
X936620Y681400D01*
D15*
X672900Y736900D03*
X691950Y724200D03*
X672900Y711500D03*
D16*
X267600Y770100D03*
X191400Y770100D03*
X242200Y859000D03*
X166000Y859000D03*
D17*
X546100Y812800D03*
X546100Y889000D03*
D18*
X700000Y300000D03*
D15*
X584200Y889000D03*
X584200Y812800D03*
D19*
X1100000Y680000D03*
X1100000Y165500D03*
D20*
X237490Y613410D03*
X237490Y575310D03*
X237490Y689610D03*
X237490Y651510D03*
X214000Y69100D03*
X214000Y31000D03*
D18*
X700000Y480000D03*
D17*
X380200Y137300D03*
X380200Y162700D03*
D20*
X774700Y736600D03*
X825500Y736600D03*
D21*
X166000Y859000D02*
X39000Y859000D01*
X39000Y770100D02*
X191400Y770100D01*
D22*
X262700Y69200D03*
D21*
X258700Y69100D02*
X214000Y69100D01*
X258700Y69100D02*
X262700Y69200D01*
D22*
X262700Y31200D03*
D21*
X214000Y31000D01*
X505800Y889000D02*
X482400Y912400D01*
X505800Y889000D02*
X546100Y889000D01*
X444500Y800100D02*
X482400Y760000D01*
X444500Y800100D02*
X406400Y800100D01*
D22*
X406400Y800100D03*
D21*
X546100Y812800D02*
X546100Y685800D01*
X520700Y658400D02*
X482400Y658400D01*
X520700Y658400D02*
X546100Y683800D01*
X546100Y685800D01*
X292100Y850900D02*
X292100Y423600D01*
X109100Y423600D01*
X292100Y850900D02*
X302800Y861600D01*
X330000Y861600D01*
X444500Y825500D02*
X482400Y785400D01*
X444500Y825500D02*
X381000Y825500D01*
D22*
X381000Y825500D03*
D23*
X901300Y165500D02*
X1100000Y165500D01*
X901300Y165500D02*
X834500Y165500D01*
X700000Y300000D01*
D24*
X900000Y254000D02*
X900000Y166800D01*
X901300Y165500D01*
D22*
X304800Y610870D03*
D21*
X304800Y709400D01*
D22*
X279400Y610870D03*
D21*
X304800Y709400D02*
X330000Y734600D01*
X279400Y610870D02*
X240030Y610870D01*
X237490Y613410D01*
D22*
X254000Y575310D03*
D21*
X237490Y575310D01*
D23*
X997500Y680000D02*
X1100000Y680000D01*
D25*
X997500Y680000D02*
X996100Y678600D01*
D24*
X929478Y680922D02*
X929000Y681400D01*
X929478Y680922D02*
X929478Y678600D01*
D26*
X996100Y678600D01*
X929478Y678600D02*
X924478Y678600D01*
D22*
X924500Y301300D03*
D24*
X924478Y301322D01*
X924478Y678600D01*
X584400Y613600D02*
X516900Y546100D01*
X330200Y546100D01*
X237490Y651510D02*
X215900Y629920D01*
X215900Y503100D01*
D22*
X279000Y440000D03*
X309500Y440000D03*
D24*
X584400Y613600D02*
X584400Y812600D01*
X584200Y812800D01*
X510000Y74000D02*
X375100Y74000D01*
X330000Y119100D02*
X330000Y136400D01*
X330000Y218100D01*
X330000Y119100D02*
X375100Y74000D01*
X330200Y546100D02*
X330000Y546300D01*
X330000Y582200D01*
X330200Y546100D02*
X330000Y545900D01*
X330000Y439700D01*
X330000Y218100D01*
X279000Y440000D02*
X215900Y503100D01*
X309500Y440000D02*
X329700Y440000D01*
X330000Y439700D01*
X330900Y137300D02*
X380200Y137300D01*
X330900Y137300D02*
X330000Y136400D01*
X672900Y736900D02*
X672900Y826800D01*
X610700Y889000D01*
X584200Y889000D01*
X672900Y736900D02*
X774400Y736900D01*
X774700Y736600D01*
D23*
X849800Y661700D02*
X700000Y511900D01*
X700000Y480000D01*
D25*
X849800Y661700D02*
X853900Y661700D01*
D27*
X895750Y703550D01*
D28*
X899080Y706880D01*
D29*
X899160Y706800D02*
X929000Y706800D01*
X899160Y706800D02*
X899080Y706880D01*
D24*
X929000Y732200D02*
X829900Y732200D01*
X825500Y736600D01*
M02*
