G04 EAGLE Gerber RS-274X export*
G75*
%MOMM*%
%FSLAX34Y34*%
%LPD*%
%INBottom Copper*%
%IPPOS*%
%AMOC8*
5,1,8,0,0,1.08239X$1,22.5*%
G01*
%ADD10C,1.879600*%
%ADD11C,1.524000*%
%ADD12P,1.814519X8X112.500000*%
%ADD13P,1.814519X8X292.500000*%
%ADD14C,1.508000*%
%ADD15P,1.429621X8X292.500000*%
%ADD16P,1.429621X8X202.500000*%
%ADD17P,1.429621X8X112.500000*%
%ADD18C,0.152400*%
%ADD19C,0.756400*%
%ADD20C,0.406400*%

G36*
X750920Y10164D02*
X750920Y10164D01*
X750939Y10162D01*
X751041Y10184D01*
X751143Y10200D01*
X751160Y10210D01*
X751180Y10214D01*
X751269Y10267D01*
X751360Y10316D01*
X751374Y10330D01*
X751391Y10340D01*
X751458Y10419D01*
X751530Y10494D01*
X751538Y10512D01*
X751551Y10527D01*
X751590Y10623D01*
X751633Y10717D01*
X751635Y10737D01*
X751643Y10755D01*
X751661Y10922D01*
X751661Y989078D01*
X751658Y989098D01*
X751660Y989117D01*
X751638Y989219D01*
X751622Y989321D01*
X751612Y989338D01*
X751608Y989358D01*
X751555Y989447D01*
X751506Y989538D01*
X751492Y989552D01*
X751482Y989569D01*
X751403Y989636D01*
X751328Y989708D01*
X751310Y989716D01*
X751295Y989729D01*
X751199Y989768D01*
X751105Y989811D01*
X751085Y989813D01*
X751067Y989821D01*
X750900Y989839D01*
X10922Y989839D01*
X10902Y989836D01*
X10883Y989838D01*
X10781Y989816D01*
X10679Y989800D01*
X10662Y989790D01*
X10642Y989786D01*
X10553Y989733D01*
X10462Y989684D01*
X10448Y989670D01*
X10431Y989660D01*
X10364Y989581D01*
X10292Y989506D01*
X10284Y989488D01*
X10271Y989473D01*
X10232Y989377D01*
X10189Y989283D01*
X10187Y989263D01*
X10179Y989245D01*
X10161Y989078D01*
X10161Y10922D01*
X10164Y10902D01*
X10162Y10883D01*
X10184Y10781D01*
X10200Y10679D01*
X10210Y10662D01*
X10214Y10642D01*
X10267Y10553D01*
X10316Y10462D01*
X10330Y10448D01*
X10340Y10431D01*
X10419Y10364D01*
X10494Y10292D01*
X10512Y10284D01*
X10527Y10271D01*
X10623Y10232D01*
X10717Y10189D01*
X10737Y10187D01*
X10755Y10179D01*
X10922Y10161D01*
X750900Y10161D01*
X750920Y10164D01*
G37*
%LPC*%
G36*
X260502Y25893D02*
X260502Y25893D01*
X257393Y29002D01*
X257393Y33398D01*
X260502Y36507D01*
X264898Y36507D01*
X267689Y33716D01*
X267763Y33663D01*
X267833Y33603D01*
X267863Y33591D01*
X267889Y33573D01*
X267976Y33546D01*
X268061Y33511D01*
X268102Y33507D01*
X268124Y33500D01*
X268156Y33501D01*
X268228Y33493D01*
X441453Y33692D01*
X441472Y33695D01*
X441491Y33693D01*
X441593Y33715D01*
X441696Y33732D01*
X441713Y33741D01*
X441732Y33745D01*
X441821Y33798D01*
X441913Y33847D01*
X441926Y33861D01*
X441943Y33871D01*
X442011Y33950D01*
X442082Y34026D01*
X442090Y34043D01*
X442103Y34058D01*
X442142Y34155D01*
X442185Y34249D01*
X442188Y34268D01*
X442195Y34286D01*
X442213Y34453D01*
X442213Y889947D01*
X465412Y913146D01*
X465465Y913220D01*
X465525Y913290D01*
X465537Y913320D01*
X465556Y913346D01*
X465583Y913433D01*
X465617Y913518D01*
X465621Y913559D01*
X465628Y913581D01*
X465627Y913613D01*
X465635Y913685D01*
X465635Y914219D01*
X467027Y917580D01*
X469600Y920153D01*
X472961Y921545D01*
X491839Y921545D01*
X495200Y920153D01*
X497773Y917580D01*
X499165Y914219D01*
X499165Y910581D01*
X497773Y907220D01*
X495200Y904647D01*
X491839Y903255D01*
X472961Y903255D01*
X469600Y904647D01*
X467029Y907218D01*
X467013Y907230D01*
X467000Y907246D01*
X466913Y907302D01*
X466829Y907362D01*
X466810Y907368D01*
X466793Y907379D01*
X466693Y907404D01*
X466594Y907434D01*
X466574Y907434D01*
X466555Y907439D01*
X466452Y907431D01*
X466348Y907428D01*
X466329Y907421D01*
X466310Y907420D01*
X466215Y907379D01*
X466117Y907344D01*
X466102Y907331D01*
X466083Y907323D01*
X465952Y907218D01*
X447010Y888276D01*
X446957Y888202D01*
X446897Y888132D01*
X446885Y888102D01*
X446866Y888076D01*
X446839Y887989D01*
X446805Y887904D01*
X446801Y887863D01*
X446794Y887841D01*
X446795Y887809D01*
X446787Y887737D01*
X446787Y31412D01*
X446787Y31411D01*
X446788Y30462D01*
X446126Y29801D01*
X446126Y29800D01*
X445449Y29122D01*
X444512Y29122D01*
X444511Y29122D01*
X268239Y28920D01*
X268149Y28905D01*
X268059Y28898D01*
X268029Y28885D01*
X267996Y28880D01*
X267916Y28837D01*
X267832Y28801D01*
X267800Y28775D01*
X267779Y28764D01*
X267757Y28741D01*
X267702Y28697D01*
X264898Y25893D01*
X260502Y25893D01*
G37*
%LPD*%
%LPC*%
G36*
X260502Y63893D02*
X260502Y63893D01*
X257393Y67002D01*
X257393Y71398D01*
X260502Y74507D01*
X264898Y74507D01*
X267695Y71710D01*
X267769Y71657D01*
X267839Y71597D01*
X267869Y71585D01*
X267895Y71566D01*
X267982Y71539D01*
X268067Y71505D01*
X268108Y71501D01*
X268130Y71494D01*
X268162Y71495D01*
X268233Y71487D01*
X428752Y71487D01*
X428772Y71490D01*
X428791Y71488D01*
X428893Y71510D01*
X428995Y71526D01*
X429012Y71536D01*
X429032Y71540D01*
X429121Y71593D01*
X429212Y71642D01*
X429226Y71656D01*
X429243Y71666D01*
X429310Y71745D01*
X429382Y71820D01*
X429390Y71838D01*
X429403Y71853D01*
X429442Y71949D01*
X429485Y72043D01*
X429487Y72063D01*
X429495Y72081D01*
X429513Y72248D01*
X429513Y915347D01*
X454253Y940087D01*
X465320Y940087D01*
X465435Y940106D01*
X465551Y940123D01*
X465557Y940125D01*
X465563Y940126D01*
X465666Y940181D01*
X465771Y940234D01*
X465775Y940239D01*
X465780Y940242D01*
X465860Y940326D01*
X465943Y940410D01*
X465946Y940416D01*
X465950Y940420D01*
X465958Y940437D01*
X466024Y940557D01*
X467027Y942980D01*
X469600Y945553D01*
X472961Y946945D01*
X491839Y946945D01*
X495200Y945553D01*
X497773Y942980D01*
X499165Y939619D01*
X499165Y935981D01*
X497773Y932620D01*
X495200Y930047D01*
X491839Y928655D01*
X472961Y928655D01*
X469600Y930047D01*
X467027Y932620D01*
X466024Y935043D01*
X465962Y935143D01*
X465902Y935243D01*
X465897Y935247D01*
X465894Y935252D01*
X465804Y935327D01*
X465715Y935403D01*
X465709Y935405D01*
X465705Y935409D01*
X465596Y935451D01*
X465487Y935495D01*
X465480Y935496D01*
X465475Y935497D01*
X465457Y935498D01*
X465320Y935513D01*
X456463Y935513D01*
X456372Y935499D01*
X456282Y935491D01*
X456252Y935479D01*
X456220Y935474D01*
X456139Y935431D01*
X456055Y935395D01*
X456023Y935369D01*
X456002Y935358D01*
X455980Y935335D01*
X455924Y935290D01*
X434310Y913676D01*
X434257Y913602D01*
X434197Y913532D01*
X434185Y913502D01*
X434166Y913476D01*
X434139Y913389D01*
X434105Y913304D01*
X434101Y913263D01*
X434094Y913241D01*
X434095Y913209D01*
X434087Y913137D01*
X434087Y68253D01*
X432747Y66913D01*
X268233Y66913D01*
X268143Y66899D01*
X268052Y66891D01*
X268023Y66879D01*
X267991Y66874D01*
X267910Y66831D01*
X267826Y66795D01*
X267794Y66769D01*
X267773Y66758D01*
X267751Y66735D01*
X267695Y66690D01*
X264898Y63893D01*
X260502Y63893D01*
G37*
%LPD*%
%LPC*%
G36*
X107297Y439935D02*
X107297Y439935D01*
X103965Y441315D01*
X101415Y443865D01*
X100035Y447197D01*
X100035Y450803D01*
X101415Y454135D01*
X103965Y456685D01*
X107297Y458065D01*
X110903Y458065D01*
X114235Y456685D01*
X116785Y454135D01*
X117770Y451757D01*
X117832Y451657D01*
X117891Y451557D01*
X117896Y451553D01*
X117899Y451548D01*
X117990Y451473D01*
X118078Y451397D01*
X118084Y451395D01*
X118089Y451391D01*
X118197Y451349D01*
X118306Y451305D01*
X118314Y451304D01*
X118318Y451303D01*
X118337Y451302D01*
X118473Y451287D01*
X263652Y451287D01*
X263672Y451290D01*
X263691Y451288D01*
X263793Y451310D01*
X263895Y451326D01*
X263912Y451336D01*
X263932Y451340D01*
X264021Y451393D01*
X264112Y451442D01*
X264126Y451456D01*
X264143Y451466D01*
X264210Y451545D01*
X264282Y451620D01*
X264290Y451638D01*
X264303Y451653D01*
X264342Y451749D01*
X264385Y451843D01*
X264387Y451863D01*
X264395Y451881D01*
X264413Y452048D01*
X264413Y623247D01*
X301853Y660687D01*
X312920Y660687D01*
X313035Y660706D01*
X313151Y660723D01*
X313157Y660725D01*
X313163Y660726D01*
X313266Y660781D01*
X313371Y660834D01*
X313375Y660839D01*
X313380Y660842D01*
X313460Y660926D01*
X313543Y661010D01*
X313546Y661016D01*
X313550Y661020D01*
X313558Y661037D01*
X313624Y661157D01*
X314627Y663580D01*
X317200Y666153D01*
X320561Y667545D01*
X339439Y667545D01*
X342800Y666153D01*
X345373Y663580D01*
X346765Y660219D01*
X346765Y656581D01*
X345373Y653220D01*
X342800Y650647D01*
X339439Y649255D01*
X320561Y649255D01*
X317200Y650647D01*
X314627Y653220D01*
X313624Y655643D01*
X313562Y655743D01*
X313502Y655843D01*
X313497Y655847D01*
X313494Y655852D01*
X313404Y655927D01*
X313315Y656003D01*
X313309Y656005D01*
X313305Y656009D01*
X313196Y656051D01*
X313087Y656095D01*
X313080Y656096D01*
X313075Y656097D01*
X313057Y656098D01*
X312920Y656113D01*
X304063Y656113D01*
X303972Y656099D01*
X303882Y656091D01*
X303852Y656079D01*
X303820Y656074D01*
X303739Y656031D01*
X303655Y655995D01*
X303623Y655969D01*
X303602Y655958D01*
X303580Y655935D01*
X303524Y655890D01*
X269210Y621576D01*
X269157Y621502D01*
X269097Y621432D01*
X269085Y621402D01*
X269066Y621376D01*
X269039Y621289D01*
X269005Y621204D01*
X269001Y621163D01*
X268994Y621141D01*
X268995Y621109D01*
X268987Y621037D01*
X268987Y448053D01*
X267647Y446713D01*
X118473Y446713D01*
X118358Y446694D01*
X118242Y446677D01*
X118236Y446675D01*
X118230Y446674D01*
X118128Y446619D01*
X118023Y446566D01*
X118018Y446561D01*
X118013Y446558D01*
X117933Y446474D01*
X117851Y446390D01*
X117847Y446384D01*
X117844Y446380D01*
X117836Y446363D01*
X117770Y446243D01*
X116785Y443865D01*
X114235Y441315D01*
X110903Y439935D01*
X107297Y439935D01*
G37*
%LPD*%
%LPC*%
G36*
X404202Y794793D02*
X404202Y794793D01*
X401093Y797902D01*
X401093Y802298D01*
X403890Y805095D01*
X403943Y805169D01*
X404003Y805239D01*
X404015Y805269D01*
X404034Y805295D01*
X404061Y805382D01*
X404095Y805467D01*
X404099Y805508D01*
X404106Y805530D01*
X404105Y805562D01*
X404113Y805633D01*
X404113Y963937D01*
X404099Y964028D01*
X404091Y964118D01*
X404079Y964148D01*
X404074Y964180D01*
X404031Y964261D01*
X403995Y964345D01*
X403969Y964377D01*
X403958Y964398D01*
X403935Y964420D01*
X403890Y964476D01*
X392976Y975390D01*
X392902Y975443D01*
X392832Y975503D01*
X392802Y975515D01*
X392776Y975534D01*
X392689Y975561D01*
X392604Y975595D01*
X392563Y975599D01*
X392541Y975606D01*
X392509Y975605D01*
X392437Y975613D01*
X255263Y975613D01*
X255172Y975599D01*
X255082Y975591D01*
X255052Y975579D01*
X255020Y975574D01*
X254939Y975531D01*
X254855Y975495D01*
X254823Y975469D01*
X254802Y975458D01*
X254780Y975435D01*
X254724Y975390D01*
X244710Y965376D01*
X244657Y965302D01*
X244597Y965232D01*
X244585Y965202D01*
X244566Y965176D01*
X244539Y965089D01*
X244505Y965004D01*
X244501Y964963D01*
X244494Y964941D01*
X244495Y964909D01*
X244487Y964837D01*
X244487Y867890D01*
X244490Y867870D01*
X244488Y867851D01*
X244510Y867749D01*
X244526Y867647D01*
X244536Y867630D01*
X244540Y867610D01*
X244593Y867521D01*
X244642Y867430D01*
X244656Y867416D01*
X244666Y867399D01*
X244745Y867332D01*
X244820Y867260D01*
X244838Y867252D01*
X244853Y867239D01*
X244949Y867200D01*
X245043Y867157D01*
X245063Y867155D01*
X245081Y867147D01*
X245248Y867129D01*
X245567Y867129D01*
X250329Y862367D01*
X250329Y855633D01*
X245567Y850871D01*
X238833Y850871D01*
X234071Y855633D01*
X234071Y862367D01*
X238833Y867129D01*
X239152Y867129D01*
X239172Y867132D01*
X239191Y867130D01*
X239293Y867152D01*
X239395Y867168D01*
X239412Y867178D01*
X239432Y867182D01*
X239521Y867235D01*
X239612Y867284D01*
X239626Y867298D01*
X239643Y867308D01*
X239710Y867387D01*
X239782Y867462D01*
X239790Y867480D01*
X239803Y867495D01*
X239842Y867591D01*
X239885Y867685D01*
X239887Y867705D01*
X239895Y867723D01*
X239913Y867890D01*
X239913Y967047D01*
X253053Y980187D01*
X394647Y980187D01*
X408687Y966147D01*
X408687Y805633D01*
X408701Y805543D01*
X408709Y805452D01*
X408721Y805423D01*
X408726Y805391D01*
X408769Y805310D01*
X408805Y805226D01*
X408831Y805194D01*
X408842Y805173D01*
X408865Y805151D01*
X408910Y805095D01*
X411707Y802298D01*
X411707Y797902D01*
X408598Y794793D01*
X404202Y794793D01*
G37*
%LPD*%
%LPC*%
G36*
X264233Y761971D02*
X264233Y761971D01*
X259471Y766733D01*
X259471Y773467D01*
X264233Y778229D01*
X264552Y778229D01*
X264572Y778232D01*
X264591Y778230D01*
X264693Y778252D01*
X264795Y778268D01*
X264812Y778278D01*
X264832Y778282D01*
X264921Y778335D01*
X265012Y778384D01*
X265026Y778398D01*
X265043Y778408D01*
X265110Y778487D01*
X265182Y778562D01*
X265190Y778580D01*
X265203Y778595D01*
X265242Y778691D01*
X265285Y778785D01*
X265287Y778805D01*
X265295Y778823D01*
X265313Y778990D01*
X265313Y954347D01*
X278453Y967487D01*
X369247Y967487D01*
X383287Y953447D01*
X383287Y831033D01*
X383301Y830943D01*
X383309Y830852D01*
X383321Y830823D01*
X383326Y830791D01*
X383369Y830710D01*
X383405Y830626D01*
X383431Y830594D01*
X383442Y830573D01*
X383465Y830551D01*
X383510Y830495D01*
X386307Y827698D01*
X386307Y823302D01*
X383198Y820193D01*
X378802Y820193D01*
X375693Y823302D01*
X375693Y827698D01*
X378490Y830495D01*
X378543Y830569D01*
X378603Y830639D01*
X378615Y830669D01*
X378634Y830695D01*
X378661Y830782D01*
X378695Y830867D01*
X378699Y830908D01*
X378706Y830930D01*
X378705Y830962D01*
X378713Y831033D01*
X378713Y951237D01*
X378699Y951328D01*
X378691Y951418D01*
X378679Y951448D01*
X378674Y951480D01*
X378631Y951561D01*
X378595Y951645D01*
X378569Y951677D01*
X378558Y951698D01*
X378535Y951720D01*
X378490Y951776D01*
X367576Y962690D01*
X367502Y962743D01*
X367432Y962803D01*
X367402Y962815D01*
X367376Y962834D01*
X367289Y962861D01*
X367204Y962895D01*
X367163Y962899D01*
X367141Y962906D01*
X367109Y962905D01*
X367037Y962913D01*
X280663Y962913D01*
X280572Y962899D01*
X280482Y962891D01*
X280452Y962879D01*
X280420Y962874D01*
X280339Y962831D01*
X280255Y962795D01*
X280223Y962769D01*
X280202Y962758D01*
X280180Y962735D01*
X280124Y962690D01*
X270110Y952676D01*
X270057Y952602D01*
X269997Y952532D01*
X269985Y952502D01*
X269966Y952476D01*
X269939Y952389D01*
X269905Y952304D01*
X269901Y952263D01*
X269894Y952241D01*
X269895Y952209D01*
X269887Y952137D01*
X269887Y778990D01*
X269890Y778970D01*
X269888Y778951D01*
X269910Y778849D01*
X269926Y778747D01*
X269936Y778730D01*
X269940Y778710D01*
X269993Y778621D01*
X270042Y778530D01*
X270056Y778516D01*
X270066Y778499D01*
X270145Y778432D01*
X270220Y778360D01*
X270238Y778352D01*
X270253Y778339D01*
X270349Y778300D01*
X270443Y778257D01*
X270463Y778255D01*
X270481Y778247D01*
X270648Y778229D01*
X270967Y778229D01*
X275729Y773467D01*
X275729Y766733D01*
X270967Y761971D01*
X264233Y761971D01*
G37*
%LPD*%
%LPC*%
G36*
X251802Y570003D02*
X251802Y570003D01*
X248693Y573112D01*
X248693Y577508D01*
X251490Y580305D01*
X251543Y580379D01*
X251603Y580449D01*
X251615Y580479D01*
X251634Y580505D01*
X251661Y580592D01*
X251695Y580677D01*
X251699Y580718D01*
X251706Y580740D01*
X251705Y580772D01*
X251713Y580843D01*
X251713Y684947D01*
X317677Y750911D01*
X317704Y750948D01*
X317737Y750979D01*
X317775Y751047D01*
X317820Y751110D01*
X317834Y751154D01*
X317856Y751195D01*
X317870Y751271D01*
X317893Y751345D01*
X317891Y751391D01*
X317900Y751437D01*
X317888Y751514D01*
X317886Y751591D01*
X317871Y751634D01*
X317864Y751680D01*
X317829Y751749D01*
X317802Y751822D01*
X317773Y751858D01*
X317752Y751899D01*
X317697Y751954D01*
X317648Y752014D01*
X317609Y752039D01*
X317577Y752071D01*
X317457Y752137D01*
X317441Y752147D01*
X317436Y752149D01*
X317430Y752152D01*
X317200Y752247D01*
X314627Y754820D01*
X313235Y758181D01*
X313235Y761819D01*
X314627Y765180D01*
X317200Y767753D01*
X320561Y769145D01*
X339439Y769145D01*
X342800Y767753D01*
X345373Y765180D01*
X346765Y761819D01*
X346765Y758181D01*
X345373Y754820D01*
X342800Y752247D01*
X339439Y750855D01*
X324405Y750855D01*
X324314Y750841D01*
X324224Y750833D01*
X324194Y750821D01*
X324162Y750816D01*
X324081Y750773D01*
X323997Y750737D01*
X323965Y750711D01*
X323944Y750700D01*
X323922Y750677D01*
X323866Y750632D01*
X317152Y743918D01*
X317095Y743839D01*
X317033Y743764D01*
X317023Y743739D01*
X317008Y743718D01*
X316980Y743625D01*
X316945Y743534D01*
X316943Y743508D01*
X316936Y743483D01*
X316938Y743386D01*
X316934Y743288D01*
X316941Y743263D01*
X316942Y743237D01*
X316976Y743145D01*
X317003Y743052D01*
X317018Y743031D01*
X317027Y743006D01*
X317088Y742930D01*
X317143Y742850D01*
X317164Y742834D01*
X317180Y742814D01*
X317262Y742761D01*
X317340Y742703D01*
X317365Y742695D01*
X317387Y742681D01*
X317482Y742657D01*
X317574Y742627D01*
X317600Y742627D01*
X317626Y742621D01*
X317723Y742628D01*
X317820Y742629D01*
X317852Y742639D01*
X317871Y742640D01*
X317901Y742653D01*
X317981Y742676D01*
X320561Y743745D01*
X339439Y743745D01*
X342800Y742353D01*
X345373Y739780D01*
X346765Y736419D01*
X346765Y732781D01*
X345373Y729420D01*
X342800Y726847D01*
X339439Y725455D01*
X320561Y725455D01*
X317200Y726847D01*
X314627Y729420D01*
X313235Y732781D01*
X313235Y736419D01*
X314304Y738999D01*
X314326Y739094D01*
X314355Y739187D01*
X314354Y739213D01*
X314360Y739238D01*
X314351Y739335D01*
X314348Y739432D01*
X314339Y739457D01*
X314337Y739483D01*
X314297Y739572D01*
X314264Y739663D01*
X314248Y739684D01*
X314237Y739708D01*
X314171Y739779D01*
X314110Y739856D01*
X314088Y739870D01*
X314071Y739889D01*
X313985Y739936D01*
X313903Y739989D01*
X313878Y739995D01*
X313855Y740008D01*
X313759Y740025D01*
X313665Y740049D01*
X313639Y740047D01*
X313613Y740051D01*
X313516Y740037D01*
X313420Y740029D01*
X313396Y740019D01*
X313370Y740015D01*
X313283Y739971D01*
X313193Y739933D01*
X313168Y739913D01*
X313150Y739904D01*
X313127Y739880D01*
X313062Y739828D01*
X256510Y683276D01*
X256457Y683202D01*
X256397Y683132D01*
X256385Y683102D01*
X256366Y683076D01*
X256339Y682989D01*
X256305Y682904D01*
X256301Y682863D01*
X256294Y682841D01*
X256295Y682809D01*
X256287Y682737D01*
X256287Y580843D01*
X256301Y580753D01*
X256309Y580662D01*
X256321Y580633D01*
X256326Y580601D01*
X256369Y580520D01*
X256405Y580436D01*
X256431Y580404D01*
X256442Y580383D01*
X256465Y580361D01*
X256510Y580305D01*
X259307Y577508D01*
X259307Y573112D01*
X256198Y570003D01*
X251802Y570003D01*
G37*
%LPD*%
%LPC*%
G36*
X556688Y454839D02*
X556688Y454839D01*
X550288Y456554D01*
X544551Y459866D01*
X539866Y464551D01*
X536554Y470288D01*
X534839Y476688D01*
X534839Y483312D01*
X536554Y489712D01*
X539866Y495449D01*
X544551Y500134D01*
X550288Y503446D01*
X556688Y505161D01*
X563312Y505161D01*
X569712Y503446D01*
X575449Y500134D01*
X580134Y495449D01*
X583446Y489712D01*
X585161Y483312D01*
X585161Y476688D01*
X583446Y470288D01*
X580134Y464551D01*
X575449Y459866D01*
X569712Y456554D01*
X563312Y454839D01*
X556688Y454839D01*
G37*
%LPD*%
%LPC*%
G36*
X56688Y914839D02*
X56688Y914839D01*
X50288Y916554D01*
X44551Y919866D01*
X39866Y924551D01*
X36554Y930288D01*
X34839Y936688D01*
X34839Y943312D01*
X36554Y949712D01*
X39866Y955449D01*
X44551Y960134D01*
X50288Y963446D01*
X56688Y965161D01*
X63312Y965161D01*
X69712Y963446D01*
X75449Y960134D01*
X80134Y955449D01*
X83446Y949712D01*
X85161Y943312D01*
X85161Y936688D01*
X83446Y930288D01*
X80134Y924551D01*
X75449Y919866D01*
X69712Y916554D01*
X63312Y914839D01*
X56688Y914839D01*
G37*
%LPD*%
%LPC*%
G36*
X56688Y154839D02*
X56688Y154839D01*
X50288Y156554D01*
X44551Y159866D01*
X39866Y164551D01*
X36554Y170288D01*
X34839Y176688D01*
X34839Y183312D01*
X36554Y189712D01*
X39866Y195449D01*
X44551Y200134D01*
X50288Y203446D01*
X56688Y205161D01*
X63312Y205161D01*
X69712Y203446D01*
X75449Y200134D01*
X80134Y195449D01*
X83446Y189712D01*
X85161Y183312D01*
X85161Y176688D01*
X83446Y170288D01*
X80134Y164551D01*
X75449Y159866D01*
X69712Y156554D01*
X63312Y154839D01*
X56688Y154839D01*
G37*
%LPD*%
%LPC*%
G36*
X472961Y674655D02*
X472961Y674655D01*
X469600Y676047D01*
X467027Y678620D01*
X465635Y681981D01*
X465635Y685619D01*
X467027Y688980D01*
X469600Y691553D01*
X472961Y692945D01*
X491839Y692945D01*
X495200Y691553D01*
X497773Y688980D01*
X498776Y686557D01*
X498838Y686457D01*
X498898Y686357D01*
X498903Y686353D01*
X498906Y686348D01*
X498996Y686273D01*
X499085Y686197D01*
X499091Y686195D01*
X499095Y686191D01*
X499204Y686149D01*
X499313Y686105D01*
X499320Y686104D01*
X499325Y686103D01*
X499343Y686102D01*
X499480Y686087D01*
X519977Y686087D01*
X520068Y686101D01*
X520158Y686109D01*
X520188Y686121D01*
X520220Y686126D01*
X520301Y686169D01*
X520385Y686205D01*
X520417Y686231D01*
X520438Y686242D01*
X520460Y686265D01*
X520516Y686310D01*
X559718Y725512D01*
X559719Y725513D01*
X560390Y726187D01*
X561336Y726187D01*
X561337Y726187D01*
X561338Y726187D01*
X683062Y726466D01*
X683081Y726469D01*
X683099Y726467D01*
X683201Y726489D01*
X683304Y726507D01*
X683321Y726516D01*
X683340Y726520D01*
X683429Y726573D01*
X683522Y726622D01*
X683535Y726636D01*
X683551Y726646D01*
X683619Y726725D01*
X683690Y726801D01*
X683698Y726818D01*
X683711Y726833D01*
X683750Y726930D01*
X683794Y727024D01*
X683796Y727043D01*
X683803Y727061D01*
X683821Y727228D01*
X683821Y727567D01*
X688583Y732329D01*
X695317Y732329D01*
X700079Y727567D01*
X700079Y720833D01*
X695317Y716071D01*
X688583Y716071D01*
X683821Y720833D01*
X683821Y721132D01*
X683818Y721152D01*
X683820Y721173D01*
X683798Y721273D01*
X683782Y721374D01*
X683772Y721393D01*
X683767Y721413D01*
X683714Y721501D01*
X683666Y721592D01*
X683651Y721606D01*
X683641Y721624D01*
X683562Y721691D01*
X683488Y721761D01*
X683469Y721770D01*
X683453Y721783D01*
X683358Y721822D01*
X683265Y721865D01*
X683244Y721867D01*
X683225Y721875D01*
X683058Y721893D01*
X677289Y721880D01*
X677219Y721868D01*
X677148Y721866D01*
X677099Y721848D01*
X677046Y721839D01*
X676984Y721806D01*
X676917Y721782D01*
X676876Y721749D01*
X676829Y721724D01*
X676781Y721672D01*
X676725Y721628D01*
X676697Y721583D01*
X676660Y721545D01*
X676631Y721481D01*
X676592Y721421D01*
X676579Y721370D01*
X676557Y721322D01*
X676550Y721251D01*
X676532Y721183D01*
X676536Y721130D01*
X676531Y721077D01*
X676546Y721008D01*
X676551Y720937D01*
X676572Y720889D01*
X676583Y720837D01*
X676620Y720776D01*
X676648Y720711D01*
X676693Y720654D01*
X676710Y720626D01*
X676728Y720611D01*
X676752Y720580D01*
X682045Y715288D01*
X682045Y713023D01*
X673662Y713023D01*
X673642Y713020D01*
X673623Y713022D01*
X673521Y713000D01*
X673419Y712983D01*
X673402Y712974D01*
X673382Y712970D01*
X673293Y712917D01*
X673202Y712868D01*
X673188Y712854D01*
X673171Y712844D01*
X673104Y712765D01*
X673033Y712690D01*
X673024Y712672D01*
X673011Y712657D01*
X672973Y712561D01*
X672929Y712467D01*
X672927Y712447D01*
X672919Y712429D01*
X672901Y712262D01*
X672901Y711499D01*
X672899Y711499D01*
X672899Y712262D01*
X672896Y712282D01*
X672898Y712301D01*
X672876Y712403D01*
X672859Y712505D01*
X672850Y712522D01*
X672846Y712542D01*
X672793Y712631D01*
X672744Y712722D01*
X672730Y712736D01*
X672720Y712753D01*
X672641Y712820D01*
X672566Y712891D01*
X672548Y712900D01*
X672533Y712913D01*
X672437Y712952D01*
X672343Y712995D01*
X672323Y712997D01*
X672305Y713005D01*
X672138Y713023D01*
X663755Y713023D01*
X663755Y715288D01*
X669027Y720560D01*
X669070Y720619D01*
X669119Y720672D01*
X669141Y720718D01*
X669171Y720760D01*
X669192Y720829D01*
X669223Y720895D01*
X669228Y720946D01*
X669243Y720995D01*
X669241Y721067D01*
X669249Y721139D01*
X669238Y721189D01*
X669237Y721241D01*
X669212Y721309D01*
X669196Y721380D01*
X669170Y721423D01*
X669152Y721472D01*
X669107Y721528D01*
X669070Y721590D01*
X669031Y721624D01*
X668999Y721664D01*
X668938Y721703D01*
X668882Y721750D01*
X668835Y721769D01*
X668792Y721797D01*
X668721Y721814D01*
X668654Y721841D01*
X668584Y721849D01*
X668553Y721857D01*
X668529Y721855D01*
X668487Y721859D01*
X562604Y721616D01*
X562514Y721601D01*
X562424Y721594D01*
X562394Y721581D01*
X562361Y721576D01*
X562281Y721533D01*
X562198Y721498D01*
X562165Y721472D01*
X562144Y721460D01*
X562122Y721437D01*
X562067Y721393D01*
X523750Y683076D01*
X522187Y681513D01*
X499480Y681513D01*
X499365Y681494D01*
X499249Y681477D01*
X499243Y681475D01*
X499237Y681474D01*
X499134Y681419D01*
X499029Y681366D01*
X499025Y681361D01*
X499020Y681358D01*
X498940Y681274D01*
X498857Y681190D01*
X498854Y681184D01*
X498850Y681180D01*
X498842Y681163D01*
X498776Y681043D01*
X497773Y678620D01*
X495200Y676047D01*
X491839Y674655D01*
X472961Y674655D01*
G37*
%LPD*%
%LPC*%
G36*
X320561Y877855D02*
X320561Y877855D01*
X317200Y879247D01*
X314627Y881820D01*
X313235Y885181D01*
X313235Y888819D01*
X314627Y892180D01*
X317200Y894753D01*
X320561Y896145D01*
X339439Y896145D01*
X342800Y894753D01*
X345373Y892180D01*
X346765Y888819D01*
X346765Y885181D01*
X345373Y881820D01*
X342800Y879247D01*
X339439Y877855D01*
X320561Y877855D01*
G37*
%LPD*%
%LPC*%
G36*
X472961Y852455D02*
X472961Y852455D01*
X469600Y853847D01*
X467027Y856420D01*
X465635Y859781D01*
X465635Y863419D01*
X467027Y866780D01*
X469600Y869353D01*
X472961Y870745D01*
X491839Y870745D01*
X495200Y869353D01*
X497773Y866780D01*
X499165Y863419D01*
X499165Y859781D01*
X497773Y856420D01*
X495200Y853847D01*
X491839Y852455D01*
X472961Y852455D01*
G37*
%LPD*%
%LPC*%
G36*
X320561Y852455D02*
X320561Y852455D01*
X317200Y853847D01*
X314627Y856420D01*
X313235Y859781D01*
X313235Y863419D01*
X314627Y866780D01*
X317200Y869353D01*
X320561Y870745D01*
X339439Y870745D01*
X342800Y869353D01*
X345373Y866780D01*
X346765Y863419D01*
X346765Y859781D01*
X345373Y856420D01*
X342800Y853847D01*
X339439Y852455D01*
X320561Y852455D01*
G37*
%LPD*%
%LPC*%
G36*
X320561Y928655D02*
X320561Y928655D01*
X317200Y930047D01*
X314627Y932620D01*
X313235Y935981D01*
X313235Y939619D01*
X314627Y942980D01*
X317200Y945553D01*
X320561Y946945D01*
X339439Y946945D01*
X342800Y945553D01*
X345373Y942980D01*
X346765Y939619D01*
X346765Y935981D01*
X345373Y932620D01*
X342800Y930047D01*
X339439Y928655D01*
X320561Y928655D01*
G37*
%LPD*%
%LPC*%
G36*
X320561Y903255D02*
X320561Y903255D01*
X317200Y904647D01*
X314627Y907220D01*
X313235Y910581D01*
X313235Y914219D01*
X314627Y917580D01*
X317200Y920153D01*
X320561Y921545D01*
X339439Y921545D01*
X342800Y920153D01*
X345373Y917580D01*
X346765Y914219D01*
X346765Y910581D01*
X345373Y907220D01*
X342800Y904647D01*
X339439Y903255D01*
X320561Y903255D01*
G37*
%LPD*%
%LPC*%
G36*
X320561Y827055D02*
X320561Y827055D01*
X317200Y828447D01*
X314627Y831020D01*
X313235Y834381D01*
X313235Y838019D01*
X314627Y841380D01*
X317200Y843953D01*
X320561Y845345D01*
X339439Y845345D01*
X342800Y843953D01*
X345373Y841380D01*
X346765Y838019D01*
X346765Y834381D01*
X345373Y831020D01*
X342800Y828447D01*
X339439Y827055D01*
X320561Y827055D01*
G37*
%LPD*%
%LPC*%
G36*
X472961Y827055D02*
X472961Y827055D01*
X469600Y828447D01*
X467027Y831020D01*
X465635Y834381D01*
X465635Y838019D01*
X467027Y841380D01*
X469600Y843953D01*
X472961Y845345D01*
X491839Y845345D01*
X495200Y843953D01*
X497773Y841380D01*
X499165Y838019D01*
X499165Y834381D01*
X497773Y831020D01*
X495200Y828447D01*
X491839Y827055D01*
X472961Y827055D01*
G37*
%LPD*%
%LPC*%
G36*
X320561Y573055D02*
X320561Y573055D01*
X317200Y574447D01*
X314627Y577020D01*
X313235Y580381D01*
X313235Y584019D01*
X314627Y587380D01*
X317200Y589953D01*
X320561Y591345D01*
X339439Y591345D01*
X342800Y589953D01*
X345373Y587380D01*
X346765Y584019D01*
X346765Y580381D01*
X345373Y577020D01*
X342800Y574447D01*
X339439Y573055D01*
X320561Y573055D01*
G37*
%LPD*%
%LPC*%
G36*
X472961Y573055D02*
X472961Y573055D01*
X469600Y574447D01*
X467027Y577020D01*
X465635Y580381D01*
X465635Y584019D01*
X467027Y587380D01*
X469600Y589953D01*
X472961Y591345D01*
X491839Y591345D01*
X495200Y589953D01*
X497773Y587380D01*
X499165Y584019D01*
X499165Y580381D01*
X497773Y577020D01*
X495200Y574447D01*
X491839Y573055D01*
X472961Y573055D01*
G37*
%LPD*%
%LPC*%
G36*
X472961Y598455D02*
X472961Y598455D01*
X469600Y599847D01*
X467027Y602420D01*
X465635Y605781D01*
X465635Y609419D01*
X467027Y612780D01*
X469600Y615353D01*
X472961Y616745D01*
X491839Y616745D01*
X495200Y615353D01*
X497773Y612780D01*
X499165Y609419D01*
X499165Y605781D01*
X497773Y602420D01*
X495200Y599847D01*
X491839Y598455D01*
X472961Y598455D01*
G37*
%LPD*%
%LPC*%
G36*
X320561Y623855D02*
X320561Y623855D01*
X317200Y625247D01*
X314627Y627820D01*
X313235Y631181D01*
X313235Y634819D01*
X314627Y638180D01*
X317200Y640753D01*
X320561Y642145D01*
X339439Y642145D01*
X342800Y640753D01*
X345373Y638180D01*
X346765Y634819D01*
X346765Y631181D01*
X345373Y627820D01*
X342800Y625247D01*
X339439Y623855D01*
X320561Y623855D01*
G37*
%LPD*%
%LPC*%
G36*
X472961Y623855D02*
X472961Y623855D01*
X469600Y625247D01*
X467027Y627820D01*
X465635Y631181D01*
X465635Y634819D01*
X467027Y638180D01*
X469600Y640753D01*
X472961Y642145D01*
X491839Y642145D01*
X495200Y640753D01*
X497773Y638180D01*
X499165Y634819D01*
X499165Y631181D01*
X497773Y627820D01*
X495200Y625247D01*
X491839Y623855D01*
X472961Y623855D01*
G37*
%LPD*%
%LPC*%
G36*
X472961Y649255D02*
X472961Y649255D01*
X469600Y650647D01*
X467027Y653220D01*
X465635Y656581D01*
X465635Y660219D01*
X467027Y663580D01*
X469600Y666153D01*
X472961Y667545D01*
X491839Y667545D01*
X495200Y666153D01*
X497773Y663580D01*
X499165Y660219D01*
X499165Y656581D01*
X497773Y653220D01*
X495200Y650647D01*
X491839Y649255D01*
X472961Y649255D01*
G37*
%LPD*%
%LPC*%
G36*
X320561Y674655D02*
X320561Y674655D01*
X317200Y676047D01*
X314627Y678620D01*
X313235Y681981D01*
X313235Y685619D01*
X314627Y688980D01*
X317200Y691553D01*
X320561Y692945D01*
X339439Y692945D01*
X342800Y691553D01*
X345373Y688980D01*
X346765Y685619D01*
X346765Y681981D01*
X345373Y678620D01*
X342800Y676047D01*
X339439Y674655D01*
X320561Y674655D01*
G37*
%LPD*%
%LPC*%
G36*
X472961Y801655D02*
X472961Y801655D01*
X469600Y803047D01*
X467027Y805620D01*
X465635Y808981D01*
X465635Y812619D01*
X467027Y815980D01*
X469600Y818553D01*
X472961Y819945D01*
X491839Y819945D01*
X495200Y818553D01*
X497773Y815980D01*
X499165Y812619D01*
X499165Y808981D01*
X497773Y805620D01*
X495200Y803047D01*
X491839Y801655D01*
X472961Y801655D01*
G37*
%LPD*%
%LPC*%
G36*
X320561Y801655D02*
X320561Y801655D01*
X317200Y803047D01*
X314627Y805620D01*
X313235Y808981D01*
X313235Y812619D01*
X314627Y815980D01*
X317200Y818553D01*
X320561Y819945D01*
X339439Y819945D01*
X342800Y818553D01*
X345373Y815980D01*
X346765Y812619D01*
X346765Y808981D01*
X345373Y805620D01*
X342800Y803047D01*
X339439Y801655D01*
X320561Y801655D01*
G37*
%LPD*%
%LPC*%
G36*
X320561Y700055D02*
X320561Y700055D01*
X317200Y701447D01*
X314627Y704020D01*
X313235Y707381D01*
X313235Y711019D01*
X314627Y714380D01*
X317200Y716953D01*
X320561Y718345D01*
X339439Y718345D01*
X342800Y716953D01*
X345373Y714380D01*
X346765Y711019D01*
X346765Y707381D01*
X345373Y704020D01*
X342800Y701447D01*
X339439Y700055D01*
X320561Y700055D01*
G37*
%LPD*%
%LPC*%
G36*
X472961Y700055D02*
X472961Y700055D01*
X469600Y701447D01*
X467027Y704020D01*
X465635Y707381D01*
X465635Y711019D01*
X467027Y714380D01*
X469600Y716953D01*
X472961Y718345D01*
X491839Y718345D01*
X495200Y716953D01*
X497773Y714380D01*
X499165Y711019D01*
X499165Y707381D01*
X497773Y704020D01*
X495200Y701447D01*
X491839Y700055D01*
X472961Y700055D01*
G37*
%LPD*%
%LPC*%
G36*
X472961Y877855D02*
X472961Y877855D01*
X469600Y879247D01*
X467027Y881820D01*
X465635Y885181D01*
X465635Y888819D01*
X467027Y892180D01*
X469600Y894753D01*
X472961Y896145D01*
X491839Y896145D01*
X495200Y894753D01*
X497773Y892180D01*
X499165Y888819D01*
X499165Y885181D01*
X497773Y881820D01*
X495200Y879247D01*
X491839Y877855D01*
X472961Y877855D01*
G37*
%LPD*%
%LPC*%
G36*
X472961Y776255D02*
X472961Y776255D01*
X469600Y777647D01*
X467027Y780220D01*
X465635Y783581D01*
X465635Y787219D01*
X467027Y790580D01*
X469600Y793153D01*
X472961Y794545D01*
X491839Y794545D01*
X495200Y793153D01*
X497773Y790580D01*
X499165Y787219D01*
X499165Y783581D01*
X497773Y780220D01*
X495200Y777647D01*
X491839Y776255D01*
X472961Y776255D01*
G37*
%LPD*%
%LPC*%
G36*
X320561Y776255D02*
X320561Y776255D01*
X317200Y777647D01*
X314627Y780220D01*
X313235Y783581D01*
X313235Y787219D01*
X314627Y790580D01*
X317200Y793153D01*
X320561Y794545D01*
X339439Y794545D01*
X342800Y793153D01*
X345373Y790580D01*
X346765Y787219D01*
X346765Y783581D01*
X345373Y780220D01*
X342800Y777647D01*
X339439Y776255D01*
X320561Y776255D01*
G37*
%LPD*%
%LPC*%
G36*
X472961Y725455D02*
X472961Y725455D01*
X469600Y726847D01*
X467027Y729420D01*
X465635Y732781D01*
X465635Y736419D01*
X467027Y739780D01*
X469600Y742353D01*
X472961Y743745D01*
X491839Y743745D01*
X495200Y742353D01*
X497773Y739780D01*
X499165Y736419D01*
X499165Y732781D01*
X497773Y729420D01*
X495200Y726847D01*
X491839Y725455D01*
X472961Y725455D01*
G37*
%LPD*%
%LPC*%
G36*
X472961Y750855D02*
X472961Y750855D01*
X469600Y752247D01*
X467027Y754820D01*
X465635Y758181D01*
X465635Y761819D01*
X467027Y765180D01*
X469600Y767753D01*
X472961Y769145D01*
X491839Y769145D01*
X495200Y767753D01*
X497773Y765180D01*
X499165Y761819D01*
X499165Y758181D01*
X497773Y754820D01*
X495200Y752247D01*
X491839Y750855D01*
X472961Y750855D01*
G37*
%LPD*%
%LPC*%
G36*
X507827Y63077D02*
X507827Y63077D01*
X503813Y64740D01*
X500740Y67813D01*
X499077Y71827D01*
X499077Y76173D01*
X500740Y80187D01*
X503813Y83260D01*
X507827Y84923D01*
X512173Y84923D01*
X516187Y83260D01*
X519260Y80187D01*
X520923Y76173D01*
X520923Y71827D01*
X519260Y67813D01*
X516187Y64740D01*
X512173Y63077D01*
X507827Y63077D01*
G37*
%LPD*%
%LPC*%
G36*
X276802Y434693D02*
X276802Y434693D01*
X273693Y437802D01*
X273693Y442198D01*
X276802Y445307D01*
X281198Y445307D01*
X282725Y443780D01*
X282799Y443727D01*
X282869Y443667D01*
X282899Y443655D01*
X282925Y443636D01*
X283012Y443609D01*
X283097Y443575D01*
X283138Y443571D01*
X283160Y443564D01*
X283192Y443565D01*
X283263Y443557D01*
X305237Y443557D01*
X305327Y443571D01*
X305418Y443579D01*
X305447Y443591D01*
X305479Y443596D01*
X305560Y443639D01*
X305644Y443675D01*
X305676Y443701D01*
X305697Y443712D01*
X305719Y443735D01*
X305775Y443780D01*
X307302Y445307D01*
X311698Y445307D01*
X314807Y442198D01*
X314807Y437802D01*
X311698Y434693D01*
X307302Y434693D01*
X305775Y436220D01*
X305701Y436273D01*
X305631Y436333D01*
X305601Y436345D01*
X305575Y436364D01*
X305488Y436391D01*
X305403Y436425D01*
X305362Y436429D01*
X305340Y436436D01*
X305308Y436435D01*
X305237Y436443D01*
X283263Y436443D01*
X283173Y436429D01*
X283082Y436421D01*
X283053Y436409D01*
X283021Y436404D01*
X282940Y436361D01*
X282856Y436325D01*
X282824Y436299D01*
X282803Y436288D01*
X282781Y436265D01*
X282725Y436220D01*
X281198Y434693D01*
X276802Y434693D01*
G37*
%LPD*%
%LPC*%
G36*
X34896Y760193D02*
X34896Y760193D01*
X29093Y765996D01*
X29093Y774204D01*
X34896Y780007D01*
X43104Y780007D01*
X48907Y774204D01*
X48907Y765996D01*
X43104Y760193D01*
X34896Y760193D01*
G37*
%LPD*%
%LPC*%
G36*
X34896Y849093D02*
X34896Y849093D01*
X29093Y854896D01*
X29093Y863104D01*
X34896Y868907D01*
X43104Y868907D01*
X48907Y863104D01*
X48907Y854896D01*
X43104Y849093D01*
X34896Y849093D01*
G37*
%LPD*%
%LPC*%
G36*
X107297Y414535D02*
X107297Y414535D01*
X103965Y415915D01*
X101415Y418465D01*
X100035Y421797D01*
X100035Y425403D01*
X101415Y428735D01*
X103965Y431285D01*
X107297Y432665D01*
X110903Y432665D01*
X114235Y431285D01*
X116785Y428735D01*
X118165Y425403D01*
X118165Y421797D01*
X116785Y418465D01*
X114235Y415915D01*
X110903Y414535D01*
X107297Y414535D01*
G37*
%LPD*%
%LPC*%
G36*
X277202Y605563D02*
X277202Y605563D01*
X274093Y608672D01*
X274093Y613068D01*
X277202Y616177D01*
X281598Y616177D01*
X284395Y613380D01*
X284469Y613327D01*
X284539Y613267D01*
X284569Y613255D01*
X284595Y613236D01*
X284682Y613209D01*
X284767Y613175D01*
X284808Y613171D01*
X284830Y613164D01*
X284862Y613165D01*
X284933Y613157D01*
X299267Y613157D01*
X299357Y613171D01*
X299448Y613179D01*
X299477Y613191D01*
X299509Y613196D01*
X299590Y613239D01*
X299674Y613275D01*
X299706Y613301D01*
X299727Y613312D01*
X299749Y613335D01*
X299805Y613380D01*
X302602Y616177D01*
X306998Y616177D01*
X310107Y613068D01*
X310107Y608672D01*
X306998Y605563D01*
X302602Y605563D01*
X299805Y608360D01*
X299731Y608413D01*
X299661Y608473D01*
X299631Y608485D01*
X299605Y608504D01*
X299518Y608531D01*
X299433Y608565D01*
X299392Y608569D01*
X299370Y608576D01*
X299338Y608575D01*
X299267Y608583D01*
X284933Y608583D01*
X284843Y608569D01*
X284752Y608561D01*
X284723Y608549D01*
X284691Y608544D01*
X284610Y608501D01*
X284526Y608465D01*
X284494Y608439D01*
X284473Y608428D01*
X284451Y608405D01*
X284395Y608360D01*
X281598Y605563D01*
X277202Y605563D01*
G37*
%LPD*%
%LPC*%
G36*
X376833Y129171D02*
X376833Y129171D01*
X372071Y133933D01*
X372071Y140667D01*
X376833Y145429D01*
X383567Y145429D01*
X388329Y140667D01*
X388329Y133933D01*
X383567Y129171D01*
X376833Y129171D01*
G37*
%LPD*%
%LPC*%
G36*
X669533Y728771D02*
X669533Y728771D01*
X664771Y733533D01*
X664771Y740267D01*
X669533Y745029D01*
X676267Y745029D01*
X681029Y740267D01*
X681029Y733533D01*
X676267Y728771D01*
X669533Y728771D01*
G37*
%LPD*%
%LPC*%
G36*
X542733Y880871D02*
X542733Y880871D01*
X537971Y885633D01*
X537971Y892367D01*
X542733Y897129D01*
X549467Y897129D01*
X554229Y892367D01*
X554229Y885633D01*
X549467Y880871D01*
X542733Y880871D01*
G37*
%LPD*%
%LPC*%
G36*
X162633Y850871D02*
X162633Y850871D01*
X157871Y855633D01*
X157871Y862367D01*
X162633Y867129D01*
X169367Y867129D01*
X174129Y862367D01*
X174129Y855633D01*
X169367Y850871D01*
X162633Y850871D01*
G37*
%LPD*%
%LPC*%
G36*
X188033Y761971D02*
X188033Y761971D01*
X183271Y766733D01*
X183271Y773467D01*
X188033Y778229D01*
X194767Y778229D01*
X199529Y773467D01*
X199529Y766733D01*
X194767Y761971D01*
X188033Y761971D01*
G37*
%LPD*%
%LPC*%
G36*
X542733Y804671D02*
X542733Y804671D01*
X537971Y809433D01*
X537971Y816167D01*
X542733Y820929D01*
X549467Y820929D01*
X554229Y816167D01*
X554229Y809433D01*
X549467Y804671D01*
X542733Y804671D01*
G37*
%LPD*%
%LPC*%
G36*
X580833Y804671D02*
X580833Y804671D01*
X576071Y809433D01*
X576071Y816167D01*
X580833Y820929D01*
X587567Y820929D01*
X592329Y816167D01*
X592329Y809433D01*
X587567Y804671D01*
X580833Y804671D01*
G37*
%LPD*%
%LPC*%
G36*
X580833Y880871D02*
X580833Y880871D01*
X576071Y885633D01*
X576071Y892367D01*
X580833Y897129D01*
X587567Y897129D01*
X592329Y892367D01*
X592329Y885633D01*
X587567Y880871D01*
X580833Y880871D01*
G37*
%LPD*%
%LPC*%
G36*
X331523Y609123D02*
X331523Y609123D01*
X331523Y617761D01*
X338420Y617761D01*
X339999Y617511D01*
X341520Y617016D01*
X342945Y616290D01*
X344239Y615350D01*
X345370Y614219D01*
X346310Y612925D01*
X347036Y611500D01*
X347531Y609979D01*
X347666Y609123D01*
X331523Y609123D01*
G37*
%LPD*%
%LPC*%
G36*
X312334Y609123D02*
X312334Y609123D01*
X312469Y609979D01*
X312964Y611500D01*
X313690Y612925D01*
X314630Y614219D01*
X315761Y615350D01*
X317055Y616290D01*
X318480Y617016D01*
X320001Y617511D01*
X321580Y617761D01*
X328477Y617761D01*
X328477Y609123D01*
X312334Y609123D01*
G37*
%LPD*%
%LPC*%
G36*
X331523Y597439D02*
X331523Y597439D01*
X331523Y606077D01*
X347666Y606077D01*
X347531Y605221D01*
X347036Y603700D01*
X346310Y602275D01*
X345370Y600981D01*
X344239Y599850D01*
X342945Y598910D01*
X341520Y598184D01*
X339999Y597689D01*
X338420Y597439D01*
X331523Y597439D01*
G37*
%LPD*%
%LPC*%
G36*
X321580Y597439D02*
X321580Y597439D01*
X320001Y597689D01*
X318480Y598184D01*
X317055Y598910D01*
X315761Y599850D01*
X314630Y600981D01*
X313690Y602275D01*
X312964Y603700D01*
X312469Y605221D01*
X312334Y606077D01*
X328477Y606077D01*
X328477Y597439D01*
X321580Y597439D01*
G37*
%LPD*%
%LPC*%
G36*
X511523Y255523D02*
X511523Y255523D01*
X511523Y265846D01*
X512796Y265645D01*
X514583Y265064D01*
X516257Y264211D01*
X517778Y263106D01*
X519106Y261778D01*
X520211Y260257D01*
X521064Y258583D01*
X521645Y256796D01*
X521846Y255523D01*
X511523Y255523D01*
G37*
%LPD*%
%LPC*%
G36*
X498154Y255523D02*
X498154Y255523D01*
X498355Y256796D01*
X498936Y258583D01*
X499789Y260257D01*
X500894Y261778D01*
X502222Y263106D01*
X503743Y264211D01*
X505417Y265064D01*
X507204Y265645D01*
X508477Y265846D01*
X508477Y255523D01*
X498154Y255523D01*
G37*
%LPD*%
%LPC*%
G36*
X511523Y252477D02*
X511523Y252477D01*
X521846Y252477D01*
X521645Y251204D01*
X521064Y249417D01*
X520211Y247743D01*
X519106Y246222D01*
X517778Y244894D01*
X516257Y243789D01*
X514583Y242936D01*
X512796Y242355D01*
X511523Y242154D01*
X511523Y252477D01*
G37*
%LPD*%
%LPC*%
G36*
X507204Y242355D02*
X507204Y242355D01*
X505417Y242936D01*
X503743Y243789D01*
X502222Y244894D01*
X500894Y246222D01*
X499789Y247743D01*
X498936Y249417D01*
X498355Y251204D01*
X498154Y252477D01*
X508477Y252477D01*
X508477Y242154D01*
X507204Y242355D01*
G37*
%LPD*%
%LPC*%
G36*
X40523Y835123D02*
X40523Y835123D01*
X40523Y844523D01*
X43524Y844523D01*
X49923Y838124D01*
X49923Y835123D01*
X40523Y835123D01*
G37*
%LPD*%
%LPC*%
G36*
X40523Y797023D02*
X40523Y797023D01*
X40523Y806423D01*
X43524Y806423D01*
X49923Y800024D01*
X49923Y797023D01*
X40523Y797023D01*
G37*
%LPD*%
%LPC*%
G36*
X28077Y835123D02*
X28077Y835123D01*
X28077Y838124D01*
X34476Y844523D01*
X37477Y844523D01*
X37477Y835123D01*
X28077Y835123D01*
G37*
%LPD*%
%LPC*%
G36*
X40523Y784577D02*
X40523Y784577D01*
X40523Y793977D01*
X49923Y793977D01*
X49923Y790976D01*
X43524Y784577D01*
X40523Y784577D01*
G37*
%LPD*%
%LPC*%
G36*
X28077Y797023D02*
X28077Y797023D01*
X28077Y800024D01*
X34476Y806423D01*
X37477Y806423D01*
X37477Y797023D01*
X28077Y797023D01*
G37*
%LPD*%
%LPC*%
G36*
X40523Y822677D02*
X40523Y822677D01*
X40523Y832077D01*
X49923Y832077D01*
X49923Y829076D01*
X43524Y822677D01*
X40523Y822677D01*
G37*
%LPD*%
%LPC*%
G36*
X34476Y784577D02*
X34476Y784577D01*
X28077Y790976D01*
X28077Y793977D01*
X37477Y793977D01*
X37477Y784577D01*
X34476Y784577D01*
G37*
%LPD*%
%LPC*%
G36*
X34476Y822677D02*
X34476Y822677D01*
X28077Y829076D01*
X28077Y832077D01*
X37477Y832077D01*
X37477Y822677D01*
X34476Y822677D01*
G37*
%LPD*%
%LPC*%
G36*
X110623Y399723D02*
X110623Y399723D01*
X110623Y408165D01*
X111461Y408033D01*
X112970Y407542D01*
X114383Y406822D01*
X115667Y405889D01*
X116789Y404767D01*
X117722Y403483D01*
X118442Y402070D01*
X118933Y400561D01*
X119065Y399723D01*
X110623Y399723D01*
G37*
%LPD*%
%LPC*%
G36*
X99135Y399723D02*
X99135Y399723D01*
X99267Y400561D01*
X99758Y402070D01*
X100478Y403483D01*
X101411Y404767D01*
X102533Y405889D01*
X103817Y406822D01*
X105230Y407542D01*
X106739Y408033D01*
X107577Y408165D01*
X107577Y399723D01*
X99135Y399723D01*
G37*
%LPD*%
%LPC*%
G36*
X110623Y396677D02*
X110623Y396677D01*
X119065Y396677D01*
X118933Y395839D01*
X118442Y394330D01*
X117722Y392917D01*
X116789Y391633D01*
X115667Y390511D01*
X114383Y389578D01*
X112970Y388858D01*
X111461Y388367D01*
X110623Y388235D01*
X110623Y396677D01*
G37*
%LPD*%
%LPC*%
G36*
X106739Y388367D02*
X106739Y388367D01*
X105230Y388858D01*
X103817Y389578D01*
X102533Y390511D01*
X101411Y391633D01*
X100478Y392917D01*
X99758Y394330D01*
X99267Y395839D01*
X99135Y396677D01*
X107577Y396677D01*
X107577Y388235D01*
X106739Y388367D01*
G37*
%LPD*%
%LPC*%
G36*
X381723Y164223D02*
X381723Y164223D01*
X381723Y171845D01*
X383988Y171845D01*
X389345Y166488D01*
X389345Y164223D01*
X381723Y164223D01*
G37*
%LPD*%
%LPC*%
G36*
X674423Y702355D02*
X674423Y702355D01*
X674423Y709977D01*
X682045Y709977D01*
X682045Y707712D01*
X676688Y702355D01*
X674423Y702355D01*
G37*
%LPD*%
%LPC*%
G36*
X381723Y153555D02*
X381723Y153555D01*
X381723Y161177D01*
X389345Y161177D01*
X389345Y158912D01*
X383988Y153555D01*
X381723Y153555D01*
G37*
%LPD*%
%LPC*%
G36*
X371055Y164223D02*
X371055Y164223D01*
X371055Y166488D01*
X376412Y171845D01*
X378677Y171845D01*
X378677Y164223D01*
X371055Y164223D01*
G37*
%LPD*%
%LPC*%
G36*
X669112Y702355D02*
X669112Y702355D01*
X663755Y707712D01*
X663755Y709977D01*
X671377Y709977D01*
X671377Y702355D01*
X669112Y702355D01*
G37*
%LPD*%
%LPC*%
G36*
X376412Y153555D02*
X376412Y153555D01*
X371055Y158912D01*
X371055Y161177D01*
X378677Y161177D01*
X378677Y153555D01*
X376412Y153555D01*
G37*
%LPD*%
%LPC*%
G36*
X109099Y398199D02*
X109099Y398199D01*
X109099Y398201D01*
X109101Y398201D01*
X109101Y398199D01*
X109099Y398199D01*
G37*
%LPD*%
%LPC*%
G36*
X380199Y162699D02*
X380199Y162699D01*
X380199Y162701D01*
X380201Y162701D01*
X380201Y162699D01*
X380199Y162699D01*
G37*
%LPD*%
%LPC*%
G36*
X38999Y795499D02*
X38999Y795499D01*
X38999Y795501D01*
X39001Y795501D01*
X39001Y795499D01*
X38999Y795499D01*
G37*
%LPD*%
%LPC*%
G36*
X509999Y253999D02*
X509999Y253999D01*
X509999Y254001D01*
X510001Y254001D01*
X510001Y253999D01*
X509999Y253999D01*
G37*
%LPD*%
%LPC*%
G36*
X329999Y607599D02*
X329999Y607599D01*
X329999Y607601D01*
X330001Y607601D01*
X330001Y607599D01*
X329999Y607599D01*
G37*
%LPD*%
%LPC*%
G36*
X38999Y833599D02*
X38999Y833599D01*
X38999Y833601D01*
X39001Y833601D01*
X39001Y833599D01*
X38999Y833599D01*
G37*
%LPD*%
D10*
X900000Y254000D03*
X900000Y74000D03*
X510000Y254000D03*
X510000Y74000D03*
D11*
X337620Y937800D02*
X322380Y937800D01*
X322380Y912400D02*
X337620Y912400D01*
X337620Y887000D02*
X322380Y887000D01*
X322380Y861600D02*
X337620Y861600D01*
X337620Y836200D02*
X322380Y836200D01*
X322380Y810800D02*
X337620Y810800D01*
X337620Y785400D02*
X322380Y785400D01*
X322380Y760000D02*
X337620Y760000D01*
X337620Y734600D02*
X322380Y734600D01*
X322380Y709200D02*
X337620Y709200D01*
X337620Y683800D02*
X322380Y683800D01*
X322380Y658400D02*
X337620Y658400D01*
X337620Y633000D02*
X322380Y633000D01*
X322380Y607600D02*
X337620Y607600D01*
X337620Y582200D02*
X322380Y582200D01*
X474780Y582200D02*
X490020Y582200D01*
X490020Y607600D02*
X474780Y607600D01*
X474780Y633000D02*
X490020Y633000D01*
X490020Y658400D02*
X474780Y658400D01*
X474780Y683800D02*
X490020Y683800D01*
X490020Y709200D02*
X474780Y709200D01*
X474780Y734600D02*
X490020Y734600D01*
X490020Y760000D02*
X474780Y760000D01*
X474780Y785400D02*
X490020Y785400D01*
X490020Y810800D02*
X474780Y810800D01*
X474780Y836200D02*
X490020Y836200D01*
X490020Y861600D02*
X474780Y861600D01*
X474780Y887000D02*
X490020Y887000D01*
X490020Y912400D02*
X474780Y912400D01*
X474780Y937800D02*
X490020Y937800D01*
D12*
X39000Y770100D03*
X39000Y795500D03*
D13*
X39000Y859000D03*
X39000Y833600D03*
D14*
X109100Y449000D03*
X109100Y423600D03*
X109100Y398200D03*
D11*
X921380Y732200D02*
X936620Y732200D01*
X936620Y706800D02*
X921380Y706800D01*
X921380Y681400D02*
X936620Y681400D01*
D15*
X672900Y736900D03*
X691950Y724200D03*
X672900Y711500D03*
D16*
X267600Y770100D03*
X191400Y770100D03*
X242200Y859000D03*
X166000Y859000D03*
D17*
X546100Y812800D03*
X546100Y889000D03*
D15*
X584200Y889000D03*
X584200Y812800D03*
D17*
X380200Y137300D03*
X380200Y162700D03*
D18*
X431800Y69200D02*
X431800Y914400D01*
X431800Y69200D02*
X262700Y69200D01*
D19*
X262700Y69200D03*
D18*
X455200Y937800D02*
X482400Y937800D01*
X455200Y937800D02*
X431800Y914400D01*
X444500Y889000D02*
X444500Y31408D01*
X262700Y31200D01*
D19*
X262700Y31200D03*
D18*
X467900Y912400D02*
X482400Y912400D01*
X467900Y912400D02*
X444500Y889000D01*
D19*
X406400Y800100D03*
D18*
X242200Y966100D02*
X254000Y977900D01*
X393700Y977900D01*
X406400Y965200D01*
X406400Y800100D01*
X242200Y859000D02*
X242200Y966100D01*
X561340Y723900D02*
X691950Y724200D01*
X561340Y723900D02*
X521240Y683800D01*
X482400Y683800D01*
X266700Y622300D02*
X266700Y449000D01*
X109100Y449000D01*
X266700Y622300D02*
X302800Y658400D01*
X330000Y658400D01*
D19*
X381000Y825500D03*
D18*
X381000Y952500D01*
X368300Y965200D01*
X279400Y965200D01*
X267600Y953400D01*
X267600Y770100D01*
D19*
X304800Y610870D03*
D18*
X279400Y610870D01*
D19*
X279400Y610870D03*
X254000Y575310D03*
D18*
X254000Y684000D01*
X330000Y760000D01*
D20*
X991900Y165900D02*
X900000Y74000D01*
X991900Y165900D02*
X991900Y234000D01*
X924550Y301350D01*
X924500Y301300D01*
D19*
X924500Y301300D03*
X279000Y440000D03*
X309500Y440000D03*
D20*
X279000Y440000D01*
M02*
