G04 EAGLE Gerber RS-274X export*
G75*
%MOMM*%
%FSLAX34Y34*%
%LPD*%
%IN*%
%IPPOS*%
%AMOC8*
5,1,8,0,0,1.08239X$1,22.5*%
G01*
%ADD10C,0.254000*%


D10*
X0Y0D02*
X1200000Y0D01*
X1200000Y1000000D01*
X0Y1000000D01*
X0Y0D01*
X75000Y939464D02*
X74924Y938396D01*
X74771Y937335D01*
X74543Y936288D01*
X74241Y935260D01*
X73867Y934256D01*
X73422Y933281D01*
X72908Y932341D01*
X72329Y931440D01*
X71687Y930582D01*
X70985Y929772D01*
X70228Y929015D01*
X69418Y928313D01*
X68560Y927671D01*
X67659Y927092D01*
X66719Y926578D01*
X65744Y926133D01*
X64740Y925759D01*
X63712Y925457D01*
X62665Y925229D01*
X61604Y925076D01*
X60536Y925000D01*
X59464Y925000D01*
X58396Y925076D01*
X57335Y925229D01*
X56288Y925457D01*
X55260Y925759D01*
X54256Y926133D01*
X53281Y926578D01*
X52341Y927092D01*
X51440Y927671D01*
X50582Y928313D01*
X49772Y929015D01*
X49015Y929772D01*
X48313Y930582D01*
X47671Y931440D01*
X47092Y932341D01*
X46578Y933281D01*
X46133Y934256D01*
X45759Y935260D01*
X45457Y936288D01*
X45229Y937335D01*
X45076Y938396D01*
X45000Y939464D01*
X45000Y940536D01*
X45076Y941604D01*
X45229Y942665D01*
X45457Y943712D01*
X45759Y944740D01*
X46133Y945744D01*
X46578Y946719D01*
X47092Y947659D01*
X47671Y948560D01*
X48313Y949418D01*
X49015Y950228D01*
X49772Y950985D01*
X50582Y951687D01*
X51440Y952329D01*
X52341Y952908D01*
X53281Y953422D01*
X54256Y953867D01*
X55260Y954241D01*
X56288Y954543D01*
X57335Y954771D01*
X58396Y954924D01*
X59464Y955000D01*
X60536Y955000D01*
X61604Y954924D01*
X62665Y954771D01*
X63712Y954543D01*
X64740Y954241D01*
X65744Y953867D01*
X66719Y953422D01*
X67659Y952908D01*
X68560Y952329D01*
X69418Y951687D01*
X70228Y950985D01*
X70985Y950228D01*
X71687Y949418D01*
X72329Y948560D01*
X72908Y947659D01*
X73422Y946719D01*
X73867Y945744D01*
X74241Y944740D01*
X74543Y943712D01*
X74771Y942665D01*
X74924Y941604D01*
X75000Y940536D01*
X75000Y939464D01*
X75000Y179464D02*
X74924Y178396D01*
X74771Y177335D01*
X74543Y176288D01*
X74241Y175260D01*
X73867Y174256D01*
X73422Y173281D01*
X72908Y172341D01*
X72329Y171440D01*
X71687Y170582D01*
X70985Y169772D01*
X70228Y169015D01*
X69418Y168313D01*
X68560Y167671D01*
X67659Y167092D01*
X66719Y166578D01*
X65744Y166133D01*
X64740Y165759D01*
X63712Y165457D01*
X62665Y165229D01*
X61604Y165076D01*
X60536Y165000D01*
X59464Y165000D01*
X58396Y165076D01*
X57335Y165229D01*
X56288Y165457D01*
X55260Y165759D01*
X54256Y166133D01*
X53281Y166578D01*
X52341Y167092D01*
X51440Y167671D01*
X50582Y168313D01*
X49772Y169015D01*
X49015Y169772D01*
X48313Y170582D01*
X47671Y171440D01*
X47092Y172341D01*
X46578Y173281D01*
X46133Y174256D01*
X45759Y175260D01*
X45457Y176288D01*
X45229Y177335D01*
X45076Y178396D01*
X45000Y179464D01*
X45000Y180536D01*
X45076Y181604D01*
X45229Y182665D01*
X45457Y183712D01*
X45759Y184740D01*
X46133Y185744D01*
X46578Y186719D01*
X47092Y187659D01*
X47671Y188560D01*
X48313Y189418D01*
X49015Y190228D01*
X49772Y190985D01*
X50582Y191687D01*
X51440Y192329D01*
X52341Y192908D01*
X53281Y193422D01*
X54256Y193867D01*
X55260Y194241D01*
X56288Y194543D01*
X57335Y194771D01*
X58396Y194924D01*
X59464Y195000D01*
X60536Y195000D01*
X61604Y194924D01*
X62665Y194771D01*
X63712Y194543D01*
X64740Y194241D01*
X65744Y193867D01*
X66719Y193422D01*
X67659Y192908D01*
X68560Y192329D01*
X69418Y191687D01*
X70228Y190985D01*
X70985Y190228D01*
X71687Y189418D01*
X72329Y188560D01*
X72908Y187659D01*
X73422Y186719D01*
X73867Y185744D01*
X74241Y184740D01*
X74543Y183712D01*
X74771Y182665D01*
X74924Y181604D01*
X75000Y180536D01*
X75000Y179464D01*
X1155000Y59464D02*
X1154924Y58396D01*
X1154771Y57335D01*
X1154543Y56288D01*
X1154241Y55260D01*
X1153867Y54256D01*
X1153422Y53281D01*
X1152908Y52341D01*
X1152329Y51440D01*
X1151687Y50582D01*
X1150985Y49772D01*
X1150228Y49015D01*
X1149418Y48313D01*
X1148560Y47671D01*
X1147659Y47092D01*
X1146719Y46578D01*
X1145744Y46133D01*
X1144740Y45759D01*
X1143712Y45457D01*
X1142665Y45229D01*
X1141604Y45076D01*
X1140536Y45000D01*
X1139464Y45000D01*
X1138396Y45076D01*
X1137335Y45229D01*
X1136288Y45457D01*
X1135260Y45759D01*
X1134256Y46133D01*
X1133281Y46578D01*
X1132341Y47092D01*
X1131440Y47671D01*
X1130582Y48313D01*
X1129772Y49015D01*
X1129015Y49772D01*
X1128313Y50582D01*
X1127671Y51440D01*
X1127092Y52341D01*
X1126578Y53281D01*
X1126133Y54256D01*
X1125759Y55260D01*
X1125457Y56288D01*
X1125229Y57335D01*
X1125076Y58396D01*
X1125000Y59464D01*
X1125000Y60536D01*
X1125076Y61604D01*
X1125229Y62665D01*
X1125457Y63712D01*
X1125759Y64740D01*
X1126133Y65744D01*
X1126578Y66719D01*
X1127092Y67659D01*
X1127671Y68560D01*
X1128313Y69418D01*
X1129015Y70228D01*
X1129772Y70985D01*
X1130582Y71687D01*
X1131440Y72329D01*
X1132341Y72908D01*
X1133281Y73422D01*
X1134256Y73867D01*
X1135260Y74241D01*
X1136288Y74543D01*
X1137335Y74771D01*
X1138396Y74924D01*
X1139464Y75000D01*
X1140536Y75000D01*
X1141604Y74924D01*
X1142665Y74771D01*
X1143712Y74543D01*
X1144740Y74241D01*
X1145744Y73867D01*
X1146719Y73422D01*
X1147659Y72908D01*
X1148560Y72329D01*
X1149418Y71687D01*
X1150228Y70985D01*
X1150985Y70228D01*
X1151687Y69418D01*
X1152329Y68560D01*
X1152908Y67659D01*
X1153422Y66719D01*
X1153867Y65744D01*
X1154241Y64740D01*
X1154543Y63712D01*
X1154771Y62665D01*
X1154924Y61604D01*
X1155000Y60536D01*
X1155000Y59464D01*
X1155000Y939464D02*
X1154924Y938396D01*
X1154771Y937335D01*
X1154543Y936288D01*
X1154241Y935260D01*
X1153867Y934256D01*
X1153422Y933281D01*
X1152908Y932341D01*
X1152329Y931440D01*
X1151687Y930582D01*
X1150985Y929772D01*
X1150228Y929015D01*
X1149418Y928313D01*
X1148560Y927671D01*
X1147659Y927092D01*
X1146719Y926578D01*
X1145744Y926133D01*
X1144740Y925759D01*
X1143712Y925457D01*
X1142665Y925229D01*
X1141604Y925076D01*
X1140536Y925000D01*
X1139464Y925000D01*
X1138396Y925076D01*
X1137335Y925229D01*
X1136288Y925457D01*
X1135260Y925759D01*
X1134256Y926133D01*
X1133281Y926578D01*
X1132341Y927092D01*
X1131440Y927671D01*
X1130582Y928313D01*
X1129772Y929015D01*
X1129015Y929772D01*
X1128313Y930582D01*
X1127671Y931440D01*
X1127092Y932341D01*
X1126578Y933281D01*
X1126133Y934256D01*
X1125759Y935260D01*
X1125457Y936288D01*
X1125229Y937335D01*
X1125076Y938396D01*
X1125000Y939464D01*
X1125000Y940536D01*
X1125076Y941604D01*
X1125229Y942665D01*
X1125457Y943712D01*
X1125759Y944740D01*
X1126133Y945744D01*
X1126578Y946719D01*
X1127092Y947659D01*
X1127671Y948560D01*
X1128313Y949418D01*
X1129015Y950228D01*
X1129772Y950985D01*
X1130582Y951687D01*
X1131440Y952329D01*
X1132341Y952908D01*
X1133281Y953422D01*
X1134256Y953867D01*
X1135260Y954241D01*
X1136288Y954543D01*
X1137335Y954771D01*
X1138396Y954924D01*
X1139464Y955000D01*
X1140536Y955000D01*
X1141604Y954924D01*
X1142665Y954771D01*
X1143712Y954543D01*
X1144740Y954241D01*
X1145744Y953867D01*
X1146719Y953422D01*
X1147659Y952908D01*
X1148560Y952329D01*
X1149418Y951687D01*
X1150228Y950985D01*
X1150985Y950228D01*
X1151687Y949418D01*
X1152329Y948560D01*
X1152908Y947659D01*
X1153422Y946719D01*
X1153867Y945744D01*
X1154241Y944740D01*
X1154543Y943712D01*
X1154771Y942665D01*
X1154924Y941604D01*
X1155000Y940536D01*
X1155000Y939464D01*
X575000Y479464D02*
X574924Y478396D01*
X574771Y477335D01*
X574543Y476288D01*
X574241Y475260D01*
X573867Y474256D01*
X573422Y473281D01*
X572908Y472341D01*
X572329Y471440D01*
X571687Y470582D01*
X570985Y469772D01*
X570228Y469015D01*
X569418Y468313D01*
X568560Y467671D01*
X567659Y467092D01*
X566719Y466578D01*
X565744Y466133D01*
X564740Y465759D01*
X563712Y465457D01*
X562665Y465229D01*
X561604Y465076D01*
X560536Y465000D01*
X559464Y465000D01*
X558396Y465076D01*
X557335Y465229D01*
X556288Y465457D01*
X555260Y465759D01*
X554256Y466133D01*
X553281Y466578D01*
X552341Y467092D01*
X551440Y467671D01*
X550582Y468313D01*
X549772Y469015D01*
X549015Y469772D01*
X548313Y470582D01*
X547671Y471440D01*
X547092Y472341D01*
X546578Y473281D01*
X546133Y474256D01*
X545759Y475260D01*
X545457Y476288D01*
X545229Y477335D01*
X545076Y478396D01*
X545000Y479464D01*
X545000Y480536D01*
X545076Y481604D01*
X545229Y482665D01*
X545457Y483712D01*
X545759Y484740D01*
X546133Y485744D01*
X546578Y486719D01*
X547092Y487659D01*
X547671Y488560D01*
X548313Y489418D01*
X549015Y490228D01*
X549772Y490985D01*
X550582Y491687D01*
X551440Y492329D01*
X552341Y492908D01*
X553281Y493422D01*
X554256Y493867D01*
X555260Y494241D01*
X556288Y494543D01*
X557335Y494771D01*
X558396Y494924D01*
X559464Y495000D01*
X560536Y495000D01*
X561604Y494924D01*
X562665Y494771D01*
X563712Y494543D01*
X564740Y494241D01*
X565744Y493867D01*
X566719Y493422D01*
X567659Y492908D01*
X568560Y492329D01*
X569418Y491687D01*
X570228Y490985D01*
X570985Y490228D01*
X571687Y489418D01*
X572329Y488560D01*
X572908Y487659D01*
X573422Y486719D01*
X573867Y485744D01*
X574241Y484740D01*
X574543Y483712D01*
X574771Y482665D01*
X574924Y481604D01*
X575000Y480536D01*
X575000Y479464D01*
M02*
