M48
;GenerationSoftware,Autodesk,EAGLE,9.6.2*%
;CreationDate,2022-12-31T17:22:37Z*%
FMAT,2
ICI,OFF
METRIC,TZ,000.000
T5C0.350
T4C0.813
T3C1.000
T2C1.016
T1C3.000
%
G90
M71
T1
X56000Y48000
X114000Y94000
X114000Y6000
X6000Y18000
X6000Y94000
T2
X33000Y86160
X33000Y78540
X48240Y93780
X48240Y91240
X48240Y88700
X48240Y81080
X92900Y73220
X92900Y70680
X92900Y68140
X48240Y63300
X90000Y25400
X90000Y7400
X51000Y25400
X51000Y7400
X33000Y93780
X33000Y91240
X33000Y88700
X48240Y78540
X33000Y83620
X33000Y81080
X48240Y83620
X33000Y76000
X33000Y73460
X33000Y70920
X33000Y68380
X33000Y65840
X33000Y63300
X33000Y60760
X33000Y58220
X48240Y58220
X48240Y60760
X48240Y86160
X48240Y65840
X48240Y68380
X48240Y70920
X48240Y73460
X48240Y76000
T3
X10910Y42360
X10910Y39820
X10910Y44900
T4
X38020Y16270
X3900Y77010
X3900Y79550
X3900Y85900
X3900Y83360
X67290Y73690
X69195Y72420
X67290Y71150
X26760Y77010
X19140Y77010
X24220Y85900
X16600Y85900
X54610Y81280
X54610Y88900
X58420Y88900
X58420Y81280
X38020Y13730
T5
X30950Y44000
X27900Y44000
X92450Y30130
X25400Y57531
X27940Y61087
X30480Y61087
X38100Y82550
X40640Y80010
X26270Y3120
X26270Y6920
M30